<svg width="289px" height="222px" viewBox="0 0 289 222" version="1.1" xmlns="http://www.w3.org/2000/svg" xmlns:xlink="http://www.w3.org/1999/xlink">
    <g id="页面-1" stroke="none" stroke-width="1" fill="none" fill-rule="evenodd">
        <g id="算法大赛-排行榜" transform="translate(-1004.000000, -546.000000)" fill="#E6EDFF" fill-rule="nonzero">
            <g id="底纹备份-3" transform="translate(1004.000000, 546.830000)">
                <polygon id="路径" points="245.668399 247.635969 234.058234 236.085882 236.311176 233.780371 247.921342 245.337967"></polygon>
                <path d="M228.260661,257.781722 L222.718421,250.865187 C221.216459,248.897617 221.43174,247.100269 223.364265,245.473144 L225.834992,243.498064 C227.837608,242.026141 229.589897,242.143795 231.091859,243.851025 L236.679157,250.827638 C238.15108,252.830254 237.930792,254.662648 236.018294,256.324819 L233.607645,258.25484 C231.595016,259.651664 229.812688,259.493958 228.260661,257.781722 Z M225.384404,249.130421 L230.430996,255.431151 C230.659841,255.724925 231.001424,255.909232 231.372604,255.939212 C231.743784,255.969192 232.110519,255.842095 232.383546,255.588857 L233.8029,254.454876 C234.097086,254.242617 234.287773,253.915832 234.327834,253.555284 C234.367895,253.194736 234.253592,252.834064 234.013175,252.562404 L228.914014,246.201596 C228.703195,245.907811 228.377682,245.717206 228.018312,245.677117 C227.658942,245.637028 227.299428,245.751215 227.029052,245.991321 L225.632227,247.072733 C225.302014,247.293116 225.081855,247.644237 225.027318,248.037473 C224.972782,248.43071 225.089078,248.828493 225.346854,249.130421 L225.384404,249.130421 Z" id="形状"></path>
                <polygon id="路径" points="220.270223 267.521945 211.528805 253.666346 214.269885 251.93909 223.003794 265.787179"></polygon>
                <polygon id="路径" points="206.106722 275.174441 198.972403 260.432685 201.893719 259.013331 209.028038 273.762596"></polygon>
                <polygon id="路径" points="191.199751 281.197308 185.740119 265.75714 188.796611 264.675727 194.256243 280.115895"></polygon>
                <path d="M171.09599,282.819427 L169.075852,274.190656 C168.575198,271.757477 169.543963,270.227979 171.982148,269.602162 L175.06868,268.851181 C177.501858,268.393083 179.033859,269.249201 179.649663,271.434556 L181.692332,280.145935 C182.15043,282.579113 181.166645,284.141153 178.688408,284.817036 L175.684484,285.522958 C173.311384,285.923481 171.781886,285.022304 171.09599,282.819427 Z M172.229972,273.770106 L174.069875,281.617857 C174.147826,281.981795 174.375609,282.296001 174.697256,282.483271 C175.018904,282.670542 175.404602,282.713518 175.759582,282.601642 L177.531897,282.188603 C177.888447,282.123997 178.201108,281.911764 178.39277,281.604247 C178.584432,281.296729 178.637255,280.922551 178.538212,280.573994 L176.675779,272.636125 C176.611173,272.279575 176.39894,271.966914 176.091423,271.775252 C175.783905,271.58359 175.409727,271.530767 175.06117,271.629811 L173.363953,272.02783 C172.970955,272.086647 172.621953,272.310932 172.405187,272.643977 C172.18842,272.977022 172.12464,273.386946 172.229972,273.770106 L172.229972,273.770106 Z" id="形状"></path>
                <polygon id="路径" points="159.778707 288.181431 157.841177 271.915183 161.062885 271.532183 163.000416 287.79843"></polygon>
                <path d="M139.780085,285.305174 L139.727516,276.443598 C139.727516,273.957852 141.049243,272.688694 143.580048,272.621105 L146.749188,272.621105 C149.227425,272.718733 150.504093,273.890263 150.646779,276.158226 L150.699348,285.102409 C150.60923,287.605679 149.297517,288.904876 146.764208,289 L143.677676,289 C141.249504,288.85481 139.950307,287.623202 139.780085,285.305174 Z M142.896656,276.736481 L142.941715,284.809526 C142.94247,285.179183 143.097992,285.531632 143.370546,285.781354 C143.6431,286.031076 144.007776,286.155249 144.376088,286.123743 L146.193462,286.123743 C146.555832,286.136901 146.907045,285.99714 147.161296,285.738603 C147.415548,285.480067 147.549421,285.126567 147.530208,284.764467 L147.485149,276.616324 C147.498152,276.255326 147.359396,275.905378 147.102543,275.651379 C146.845691,275.39738 146.494214,275.262542 146.133384,275.279578 L144.391108,275.279578 C143.992737,275.248809 143.600403,275.391042 143.314302,275.669955 C143.0282,275.948868 142.876031,276.337456 142.896656,276.736481 Z" id="形状"></path>
                <polygon id="路径" points="127.524076 288.001195 129.266351 271.712418 132.495569 272.05787 130.745784 288.376686"></polygon>
                <polygon id="路径" points="111.655848 285.215056 115.215498 269.226672 118.377128 269.925084 114.862537 285.913468"></polygon>
                <path d="M93.7749916,275.910402 L96.6437388,267.521945 C97.4998571,265.193904 99.1344923,264.415387 101.547644,265.186394 L104.551568,266.215238 C106.859583,267.116415 107.695675,268.658429 107.059845,270.841281 L104.161058,279.297326 C103.259881,281.610347 101.592703,282.406387 99.159525,281.685446 L96.2457189,280.686641 C93.9977826,279.750418 93.1742068,278.158338 93.7749916,275.910402 Z M99.5350155,268.851181 L96.9216017,276.488657 C96.7957087,276.839924 96.8232582,277.22793 96.9975199,277.557884 C97.1717815,277.887839 97.476706,278.129353 97.8377985,278.223423 L99.5575449,278.809188 C99.8933301,278.941967 100.269501,278.927244 100.593881,278.768627 C100.918261,278.610009 101.160875,278.322155 101.262272,277.9756 L103.905725,270.263025 C104.040961,269.927396 104.027418,269.550144 103.868463,269.225075 C103.709509,268.900007 103.420077,268.657661 103.072136,268.558298 L101.419978,267.987553 C101.057039,267.831235 100.644872,267.835961 100.285614,268.000562 C99.9263554,268.165162 99.653628,268.474232 99.5350155,268.851181 Z" id="形状"></path>
                <path d="M79.3861965,269.406907 L83.1411013,261.39394 C84.2525531,259.176043 85.9622864,258.585271 88.2703012,259.621625 L91.1315386,260.973391 C93.3319128,262.129902 93.9852662,263.75202 93.1141283,265.847257 L89.3291843,273.935322 C88.1726736,276.128186 86.4203848,276.731475 84.0723176,275.745186 L81.2786685,274.43097 C79.1709153,273.24442 78.5400913,271.569732 79.3861965,269.406907 Z M85.9047112,263.031079 L82.4501988,270.330614 C82.2879228,270.669935 82.2770004,271.062121 82.4201391,271.409948 C82.5632778,271.757776 82.8470763,272.028678 83.2011797,272.155497 L84.845828,272.906478 C85.1668187,273.075739 85.5442031,273.10217 85.8856536,272.979305 C86.2271041,272.85644 86.5011235,272.595613 86.6406725,272.260635 L90.1252241,264.893511 C90.2947148,264.574595 90.3220789,264.19905 90.2006085,263.858933 C90.0791381,263.518816 89.8200631,263.24557 89.4868903,263.106177 L87.9098303,262.355196 C87.5600642,262.148267 87.1375201,262.103924 86.7524158,262.233734 C86.3673116,262.363545 86.057835,262.654636 85.9047112,263.031079 L85.9047112,263.031079 Z" id="形状"></path>
                <path d="M65.8309903,261.341372 L70.4870722,253.831562 C71.8338314,251.748841 73.5861203,251.350822 75.7439389,252.637502 L78.4324507,254.30468 C80.4901385,255.691491 80.9657598,257.378695 79.8593145,259.366292 L75.1656835,266.973729 C73.768859,269.031416 71.9740145,269.436946 69.7586207,268.197828 L67.1376972,266.575709 C65.1801401,265.148845 64.7445712,263.404066 65.8309903,261.341372 Z M73.0103682,255.739054 L68.7673258,262.60302 C68.5676006,262.917699 68.509165,263.301775 68.6062649,263.661616 C68.7033647,264.021456 68.9470786,264.324 69.2779929,264.495492 L70.8250136,265.456747 C71.1240601,265.660121 71.494999,265.727973 71.8466747,265.643628 C72.1983503,265.559283 72.4981597,265.330561 72.6724268,265.013668 L76.960528,258.082114 C77.1641578,257.781874 77.2321422,257.409841 77.1478573,257.056988 C77.0635725,256.704134 76.8347888,256.40299 76.5174493,256.227191 L75.0605462,255.333524 C74.741531,255.09243 74.3344859,254.999617 73.9424905,255.078591 C73.5504951,255.157564 73.2111418,255.40075 73.0103682,255.746563 L73.0103682,255.739054 Z" id="形状"></path>
                <polygon id="路径" points="54.0330795 257.165917 64.1262635 244.271574 66.6871086 246.269184 56.5713952 259.163527"></polygon>
                <path d="M41.8671881,241.064886 L48.0778006,234.741626 C49.8501156,233.01437 51.6599797,233.01437 53.5073929,234.741626 L55.7603357,236.95702 C57.4575527,238.774394 57.5501737,240.526683 56.0381987,242.213887 L49.7750175,248.574695 C47.9576436,250.271912 46.1102305,250.271912 44.2327781,248.574695 L42.0173843,246.41187 C40.4052785,244.594496 40.3552131,242.812168 41.8671881,241.064886 Z M50.1279786,237.189824 L44.473092,242.949848 C44.2080398,243.210685 44.0651309,243.571111 44.0794231,243.942709 C44.0937153,244.314306 44.2638862,244.66269 44.5481901,244.902398 L45.8473872,246.179066 C46.0907587,246.446636 46.4356832,246.599167 46.7973781,246.599167 C47.159073,246.599167 47.5039974,246.446636 47.747369,246.179066 L53.4473144,240.313905 C53.7170317,240.07176 53.871106,239.72638 53.871106,239.363914 C53.871106,239.001448 53.7170317,238.656068 53.4473144,238.413923 L52.2081958,237.197334 C51.9498134,236.889623 51.5708646,236.708847 51.1691242,236.701647 C50.7673838,236.694447 50.382201,236.86153 50.112959,237.159785 L50.1279786,237.189824 Z" id="形状"></path>
                <polygon id="路径" points="31.2783567 234.306057 43.9924642 223.972559 46.0351324 226.488346 33.3285347 236.851883"></polygon>
                <path d="M23.025076,215.892004 L30.4823169,211.115765 C32.6000832,209.814065 34.352372,210.219595 35.7391835,212.332355 L37.5114986,214.990827 C38.758127,217.138633 38.4552313,218.868392 36.6028116,220.180106 L29.0930021,225.001403 C26.9502031,226.248032 25.1528554,225.834992 23.7009589,223.762285 L22.0337812,221.163891 C20.8021724,219.038614 21.1551334,217.273809 23.025076,215.892004 Z M31.9242003,213.946964 L25.1278227,218.302653 C24.8096306,218.49682 24.5882201,218.816319 24.5181443,219.182429 C24.4480686,219.548539 24.5358434,219.927218 24.759842,220.225164 L25.7436271,221.727126 C25.9258132,222.040533 26.2313136,222.262958 26.585527,222.340085 C26.9397405,222.417212 27.3100614,222.341942 27.6060598,222.132656 L34.5075748,217.784476 C34.8205398,217.603803 35.0428959,217.299627 35.1200774,216.946593 C35.1972589,216.593559 35.1221218,216.224344 34.9131045,215.929553 L33.9743783,214.46514 C33.7924442,214.10214 33.4615601,213.836271 33.067898,213.736774 C32.674236,213.637277 32.2567625,213.714001 31.9242003,213.946964 L31.9242003,213.946964 Z" id="形状"></path>
                <path d="M15.8231687,201.87119 L23.776057,197.958579 C26.0239933,196.912212 27.7312233,197.512997 28.8977471,199.760933 L30.2870618,202.599641 C31.2883698,204.877617 30.7877158,206.562318 28.7850999,207.653743 L20.7646233,211.603903 C18.4866478,212.605211 16.7343589,211.99191 15.5077567,209.764 L14.2310891,206.99288 C13.2798465,204.74995 13.8105397,203.04272 15.8231687,201.87119 Z M24.8875088,200.939973 L17.6480524,204.499623 C17.3082261,204.657225 17.0512345,204.951622 16.9409712,205.30962 C16.8307079,205.667617 16.8775302,206.055589 17.0697971,206.377076 L17.8658369,208.021724 C18.0110353,208.353489 18.2888387,208.609062 18.6315351,208.72615 C18.9742315,208.843238 19.3503413,208.811085 19.6681911,208.637528 L26.9977652,205.0178 C27.32953,204.872602 27.5851031,204.594798 27.7021911,204.252102 C27.819279,203.909405 27.7871262,203.533296 27.6135696,203.215446 L26.8625887,201.653405 C26.7158451,201.278993 26.4148526,200.985989 26.0366286,200.849368 C25.6584046,200.712747 25.2396478,200.745765 24.8875088,200.939973 Z" id="形状"></path>
                <polygon id="路径" points="8.03549619 192.02583 23.4456253 186.47608 24.5495673 189.525063 9.13943819 195.082322"></polygon>
                <polygon id="路径" points="3.59719876 176.578151 19.4879557 172.725619 20.2389367 175.879739 4.31063067 179.709742"></polygon>
                <polygon id="路径" points="0.886157524 160.709924 17.1373853 158.674765 17.5429151 161.888964 1.29168724 163.954162"></polygon>
                <path d="M3.63474781,140.733831 L12.4963231,140.621183 C14.9745602,140.621183 16.2562344,141.897851 16.3413455,144.451186 L16.3788946,147.620326 C16.3037965,150.123596 15.1322662,151.430303 12.8643037,151.540446 L3.92763038,151.645584 C1.44939324,151.570486 0.172725619,150.271289 -6.67005076e-15,147.740483 L-6.67005076e-15,144.653951 C0.105137333,142.225779 1.31671994,140.919072 3.63474781,140.733831 Z M12.2184601,143.790323 L4.14541486,143.887951 C3.77320273,143.888888 3.41823635,144.044975 3.16594912,144.318642 C2.91366189,144.59231 2.78690219,144.958774 2.81617857,145.329834 L2.81617857,147.154718 C2.80483112,147.516584 2.94676054,147.866429 3.2070186,148.118107 C3.46727667,148.369785 3.82168087,148.499911 4.18296391,148.476444 L12.3311072,148.378817 C12.6921944,148.389822 13.0413899,148.249112 13.2939657,147.990828 C13.5465415,147.732544 13.6794141,147.380292 13.6603435,147.019541 L13.6603435,145.277265 C13.68845,144.882875 13.5471828,144.495191 13.271933,144.21134 C12.9966832,143.927488 12.6135288,143.774362 12.2184601,143.790323 L12.2184601,143.790323 Z" id="形状"></path>
                <polygon id="路径" points="0.856118286 128.485331 17.152405 130.12247 16.8294831 133.351688 0.533196476 131.707039"></polygon>
                <path d="M7.99043734,109.59816 L16.6567575,111.468103 C19.0674064,112.046358 20.0361718,113.570849 19.5480342,116.056596 L18.887171,119.150638 C18.256347,121.553777 16.8294831,122.567601 14.5840501,122.192111 L5.84263181,120.307149 C3.44700257,119.683834 2.45570772,118.121794 2.89127667,115.621027 L3.53712029,112.617104 C4.2079966,110.274043 5.69243562,109.267729 7.99043734,109.59816 Z M15.6804823,114.494556 L7.78767248,112.797339 C7.42538234,112.711278 7.04359677,112.782032 6.73620556,112.992202 C6.42881435,113.202372 6.22433855,113.532457 6.17306343,113.901281 L5.79006314,115.651067 C5.69616168,116.000873 5.75434434,116.374067 5.9502738,116.678687 C6.14620326,116.983308 6.46165911,117.191026 6.81890705,117.250656 L14.786815,118.970403 C15.1377312,119.064244 15.5119751,119.00508 15.8168313,118.807568 C16.1216875,118.610055 16.3286349,118.292673 16.3864044,117.934049 L16.7543851,116.236832 C16.8578667,115.862593 16.8009062,115.462169 16.5971702,115.131632 C16.3934342,114.801095 16.0613094,114.570277 15.6804823,114.494556 L15.6804823,114.494556 Z" id="形状"></path>
                <polygon id="路径" points="8.00545696 97.0492685 23.5282332 102.306135 22.4918795 105.340098 6.96910324 100.12829"></polygon>
                <path d="M19.1274849,80.2423148 L27.1704909,83.9972196 C29.3933945,85.0836387 29.9966825,86.7883654 28.980355,89.1113998 L27.6436089,91.9801471 C26.5021178,94.1880311 24.879999,94.8589074 22.7772523,93.992776 L14.6741678,90.2378713 C12.4662838,89.1013868 11.8479762,87.3490979 12.8192449,84.9810046 L14.1259517,82.1798456 C15.2924755,80.0520663 16.9596532,79.4062227 19.1274849,80.2423148 Z M25.548372,86.7157706 L18.2263077,83.3138269 C17.8880655,83.1516826 17.4968595,83.140891 17.1501928,83.2841417 C16.8035261,83.4273924 16.5340521,83.7111922 16.4089338,84.0648078 L15.6579529,85.7169659 C15.4916785,86.0382086 15.4677229,86.4144529 15.5919123,86.7541896 C15.7161018,87.0939262 15.977056,87.3660228 16.3113063,87.5043006 L23.7009589,90.9437934 C24.0222016,91.1100677 24.3984458,91.1340233 24.7381825,91.0098339 C25.0779192,90.8856444 25.3500157,90.6246903 25.4882935,90.2904399 L26.2392745,88.7058701 C26.4426035,88.3558972 26.4832034,87.9346548 26.3504581,87.5522905 C26.2177128,87.1699263 25.9248221,86.8644617 25.548372,86.7157706 L25.548372,86.7157706 Z" id="形状"></path>
                <polygon id="路径" points="21.8986046 68.0238547 35.8893797 76.5324689 34.2071824 79.3035886 20.2389367 70.7949744"></polygon>
                <path d="M36.4751449,54.0706286 L43.5193462,59.4626718 C45.4568771,61.0247122 45.669655,62.82206 44.15768,64.8547151 L42.1901099,67.3629915 C40.5930238,69.2554635 38.8657676,69.5508493 37.0083413,68.249149 L29.926591,62.7895174 C28.034119,61.1924313 27.8188378,59.3575345 29.2807473,57.2848271 L31.1657095,54.8216095 C32.7728088,53.0092422 34.5426206,52.7589152 36.4751449,54.0706286 Z M41.3039524,61.7982226 L34.9206143,56.8642777 C34.6328082,56.6372456 34.2640207,56.5391469 33.9014512,56.5931769 C33.5388816,56.6472069 33.2147196,56.8485686 33.0056129,57.1496505 L31.8716316,58.5765143 C31.6391522,58.8527015 31.5328612,59.213575 31.5785165,59.5716835 C31.6241717,59.929792 31.8176066,60.2524534 32.1119455,60.4614765 L38.5628719,65.4404802 C38.83941,65.6755151 39.2020679,65.7833694 39.5621019,65.7376508 C39.9221359,65.6919322 40.2463268,65.496859 40.4553439,65.2001663 L41.5142271,63.833381 C41.7820009,63.542392 41.9122725,63.1506222 41.8720714,62.7572251 C41.8318702,62.363828 41.625049,62.0065056 41.3039524,61.7756932 L41.3039524,61.7982226 Z" id="形状"></path>
                <polygon id="路径" points="41.8897175 42.7308162 53.6575891 54.1231973 51.4046462 56.458748 39.6292649 45.0588572"></polygon>
                <path d="M59.2073383,32.3447496 L64.8396954,39.1861861 C66.3716966,41.13373 66.1789448,42.9335811 64.2614401,44.5857392 L61.820752,46.5983681 C59.8181361,48.10033 58.0658473,48.0052058 56.5638854,46.3129953 L50.8789595,39.4114804 C49.3769976,37.4288907 49.5797625,35.5964972 51.4647247,33.8992802 L53.8453343,31.9392199 C55.8179109,30.5223692 57.6052456,30.6575458 59.2073383,32.3447496 Z M62.2112621,40.9509913 L57.0370034,34.7253592 C56.8048001,34.4347868 56.4614717,34.2547985 56.0904047,34.2291093 C55.7193377,34.20342 55.3544821,34.3343802 55.0844529,34.5901827 L53.7026479,35.7466933 C53.4148466,35.9649774 53.2315951,36.2937987 53.1973485,36.6533882 C53.1631019,37.0129778 53.2809893,37.370479 53.5224125,37.6391653 L58.7041811,43.9323857 C58.9199241,44.2232668 59.2484606,44.4095288 59.6088473,44.4452815 C59.969234,44.4810341 60.3279633,44.3629532 60.5966531,44.120131 L61.940909,43.0086792 C62.2646049,42.7819692 62.4771195,42.428753 62.5257846,42.0365692 C62.5744498,41.6443854 62.4547106,41.2499406 62.1962425,40.9509913 L62.2112621,40.9509913 Z" id="形状"></path>
                <polygon id="路径" points="66.987501 22.5294286 75.9166645 36.2648702 73.1981135 38.0296754 64.2614401 24.2942338"></polygon>
                <polygon id="路径" points="81.0683938 14.666658 88.3979679 29.2882572 85.4991815 30.7902191 78.1620975 16.1385807"></polygon>
                <polygon id="路径" points="95.8702284 8.44853572 101.547644 23.813606 98.4986617 24.9325676 92.8287556 9.56749734"></polygon>
                <polygon id="路径" points="111.295377 3.88257153 115.245537 19.7808383 112.098927 20.5318192 108.141257 4.66359172"></polygon>
                <polygon id="路径" points="127.133565 1.05137333 129.296391 17.2725619 126.082192 17.7006211 123.919367 1.50196191"></polygon>
                <path d="M147.154718,3.64225762 L147.334953,12.5038329 C147.334953,14.98207 146.065795,16.2587376 143.534989,16.3788946 L140.36585,16.4389731 C137.887613,16.3864044 136.610945,15.2223839 136.4232,12.9619312 L136.242964,4.0177481 C136.29303,1.53951095 137.584717,0.220287746 140.118026,0.0600784762 L143.197048,0 C145.652756,0.112647143 146.944443,1.32172648 147.154718,3.64225762 Z M144.150794,12.2484993 L143.985578,4.18296391 C143.984998,3.8098937 143.827665,3.45423994 143.552003,3.20285921 C143.276341,2.95147848 142.907728,2.82751308 142.536185,2.86123743 L140.711301,2.86123743 C140.349324,2.85186605 140.000213,2.99574899 139.749955,3.25744734 C139.499697,3.51914569 139.371553,3.87433565 139.397084,4.23553257 L139.5623,12.3836759 C139.550754,12.7449515 139.692895,13.094189 139.953447,13.3447201 C140.213999,13.5952511 140.56854,13.7235918 140.929086,13.6978926 L142.671361,13.6978926 C143.065229,13.7215346 143.450723,13.5774914 143.732578,13.3013596 C144.014433,13.0252278 144.166352,12.6427693 144.150794,12.2484993 L144.150794,12.2484993 Z" id="形状"></path>
                <polygon id="路径" points="159.388197 0.750980953 157.886235 17.0622872 154.657017 16.7618949 156.166489 0.465608191"></polygon>
                <path d="M178.305408,7.75763324 L176.503053,16.4389731 C175.947327,18.8571317 174.430346,19.833407 171.937089,19.3677988 L168.835538,18.7219551 C166.432399,18.1136606 165.403555,16.6943066 165.764026,14.4488735 L167.5814,5.69243562 C168.192197,3.28929657 169.746728,2.28798864 172.244991,2.68851181 L175.248915,3.311826 C177.606995,3.98019905 178.62082,5.45212172 178.305408,7.75763324 Z M173.439051,15.4852272 L175.083699,7.57739781 C175.15566,7.22280815 175.079111,6.85422071 174.871908,6.55760808 C174.664705,6.26099544 174.344965,6.06229292 173.987267,6.00784762 L172.207442,5.63235714 C171.856609,5.54345466 171.484571,5.60581802 171.181905,5.80426409 C170.879239,6.00271016 170.673712,6.31903327 170.615363,6.67622067 L168.933165,14.629109 C168.844263,14.9799421 168.906626,15.3519802 169.105072,15.6546462 C169.303518,15.9573121 169.619841,16.1628389 169.977029,16.2211886 L171.681756,16.5741496 C172.060294,16.6847656 172.468008,16.6292948 172.803235,16.4215685 C173.138462,16.2138421 173.369613,15.8734359 173.439051,15.4852272 L173.439051,15.4852272 Z" id="形状"></path>
                <polygon id="路径" points="190.861809 7.67502534 185.762648 23.2804095 182.683627 22.2665852 187.775277 6.6987501"></polygon>
                <path d="M207.758881,18.6768963 L204.079074,26.7424317 C203.002668,28.9703419 201.302948,29.5861463 198.979913,28.5898449 L196.096146,27.2756282 C193.888262,26.1491568 193.20487,24.5320445 194.045968,22.4242912 L197.755814,14.2686381 C198.874776,12.0156952 200.617052,11.4299301 202.960112,12.3761661 L205.768781,13.6603435 C207.906573,14.8268673 208.56994,16.4990515 207.758881,18.6768963 Z M201.330484,25.1353325 L204.679859,17.7907388 C204.839409,17.45326 204.848812,17.0640501 204.705746,16.71926 C204.562679,16.37447 204.280485,16.1062548 203.928878,15.9808747 L202.26921,15.2298937 C201.946768,15.0669932 201.570844,15.0465653 201.232649,15.1735667 C200.894454,15.3005681 200.624898,15.5633918 200.489385,15.8982668 L197.12499,23.2804095 C196.957246,23.6020783 196.934273,23.9799219 197.06181,24.319544 C197.189348,24.6591662 197.45535,24.9284913 197.793363,25.0602344 L199.377933,25.8112153 C199.722783,26.0019481 200.132409,26.0372563 200.504811,25.908348 C200.877213,25.7794397 201.177349,25.4984445 201.330484,25.1353325 Z" id="形状"></path>
                <polygon id="路径" points="219.99987 21.3578983 211.618923 35.4162617 208.832783 33.7941429 217.23626 19.7357794"></polygon>
                <path d="M234.080763,35.8217914 L228.718759,42.8735026 C227.171738,44.81604 225.376894,45.0413343 223.334226,43.5493854 L220.81093,41.634384 C218.903438,40.0523175 218.593032,38.3250613 219.879713,36.4526154 L225.286776,29.333316 C226.868843,27.4258244 228.701236,27.1955236 230.783957,28.6424135 L233.239664,30.5123561 C235.077064,32.1044357 235.357431,33.8742475 234.080763,35.8217914 Z M226.390718,40.7031676 L231.272094,34.2822805 C231.503095,33.9884422 231.59971,33.6109257 231.538263,33.2422435 C231.476816,32.8735613 231.262986,32.5477856 230.949172,32.3447496 L229.507289,31.2483174 C229.230064,31.0151197 228.867239,30.9098608 228.508255,30.9584883 C228.14927,31.0071157 227.827522,31.2051054 227.622327,31.503651 L222.688382,37.9921264 C222.455184,38.2693511 222.349925,38.6321759 222.398553,38.9911607 C222.44718,39.3501456 222.64517,39.6718928 222.943715,39.8770886 L224.32552,40.9284619 C224.620825,41.192643 225.014431,41.318979 225.408322,41.2760091 C225.802213,41.2330392 226.159321,41.024807 226.390718,40.7031676 L226.390718,40.7031676 Z" id="形状"></path>
                <polygon id="路径" points="245.435595 41.1387366 234.133332 52.989216 231.782761 50.7362732 243.085025 38.8782839"></polygon>
                <path d="M255.949328,58.3662396 L249.152951,64.0511654 C247.21542,65.6031928 245.415569,65.4254606 243.753398,63.517969 L241.718239,61.0923005 C240.216277,59.1197239 240.296382,57.367435 241.958553,55.8354338 L248.822519,50.0979393 C250.790089,48.5959774 252.624986,48.7787161 254.327209,50.6461554 L256.309799,53.0117454 C257.746676,54.9693025 257.626519,56.7541339 255.949328,58.3662396 Z M247.365616,61.4227321 L253.553699,56.2409635 C253.844193,56.007865 254.022857,55.6630208 254.045733,55.2912702 C254.06861,54.9195196 253.933578,54.555371 253.673856,54.2884131 L252.502326,52.8915885 C252.282906,52.6048779 251.953506,52.4230842 251.593963,52.3902688 C251.23442,52.3574534 250.877552,52.4766115 250.609854,52.7188629 L244.354182,57.9757295 C244.066564,58.1949112 243.884686,58.5251999 243.853236,58.885444 C243.821787,59.245688 243.94368,59.6024965 244.188967,59.8682015 L245.307928,61.2049476 C245.539052,61.5250903 245.89548,61.7317655 246.288141,61.7733244 C246.680801,61.8148834 247.072596,61.6873998 247.365616,61.4227321 Z" id="形状"></path>
                <path d="M264.878492,71.3431905 L257.488839,76.2320765 C255.386093,77.553803 253.616281,77.173306 252.179404,75.0905855 L250.437128,72.4546423 C249.155454,70.3218564 249.430814,68.5895937 251.263207,67.2578541 L258.727958,62.3314191 C260.850731,61.0547514 262.655588,61.4427583 264.14253,63.4954395 L265.847257,66.0863238 C267.048827,68.2040901 266.725905,69.956379 264.878492,71.3431905 Z M256.001897,73.4459372 L262.760726,69.0001299 C263.076468,68.8010439 263.29331,68.4777335 263.357688,68.1100597 C263.422067,67.7423859 263.32798,67.3646327 263.098667,67.0701089 L262.092352,65.568147 C261.907935,65.2565701 261.600557,65.0373201 261.245915,64.9643897 C260.891272,64.8914592 260.522321,64.9716255 260.22992,65.1851467 L253.433542,69.6910324 C253.121529,69.8769562 252.902211,70.1856519 252.829332,70.5414727 C252.756453,70.8972935 252.836748,71.2673559 253.050542,71.560975 L254.011797,73.0103682 C254.206426,73.3452464 254.532671,73.5830637 254.911043,73.6658773 C255.289416,73.7486909 255.685175,73.6688971 256.001897,73.4459372 L256.001897,73.4459372 Z" id="形状"></path>
                <path d="M272.290674,85.3114362 L264.390354,89.3667334 C262.157437,90.4481459 260.442698,89.8723939 259.246135,87.6394772 L257.811761,84.8157888 C256.775407,82.5528329 257.246022,80.8631257 259.223605,79.7466674 L267.191513,75.6838604 C269.444456,74.6575198 271.196745,75.2457882 272.44838,77.4486656 L273.852714,80.1972559 C274.82148,82.4051399 274.288283,84.1098667 272.290674,85.3114362 Z M263.233844,86.3628096 L270.428241,82.6980225 C270.762908,82.534791 271.0132,82.2379673 271.117569,81.8805404 C271.221937,81.5231135 271.1707,81.1382435 270.976457,80.8205701 L270.150378,79.1984513 C270.003033,78.8686619 269.722882,78.6167238 269.37936,78.5050793 C269.035838,78.3934347 268.6611,78.4325339 268.348024,78.6126861 L261.086038,82.3150222 C260.754477,82.4625406 260.50081,82.7434568 260.38777,83.0882996 C260.274731,83.4331423 260.312872,83.8097136 260.492763,84.1248863 L261.281293,85.6719071 C261.431453,86.0376594 261.730334,86.322109 262.103065,86.4539982 C262.475795,86.5858875 262.887064,86.5527218 263.233844,86.3628096 L263.233844,86.3628096 Z" id="形状"></path>
                <polygon id="路径" points="280.206013 95.0366396 264.870982 100.804173 263.729491 97.8002495 279.064522 92.0327157"></polygon>
                <path d="M282.218642,115.095341 L273.62742,117.288205 C271.216771,117.851441 269.66975,116.905205 268.993867,114.472027 L268.205337,111.400515 C267.704683,108.977349 268.535769,107.432832 270.698594,106.766962 L279.364914,104.551568 C281.78808,104.050914 283.36514,105.009667 284.096094,107.427825 L284.847075,110.431749 C285.30267,112.809855 284.426526,114.364386 282.218642,115.095341 Z M273.154302,114.149105 L280.972014,112.151495 C281.334548,112.065233 281.644222,111.83075 281.825563,111.505193 C282.006904,111.179635 282.043256,110.792907 281.925759,110.439259 L281.475171,108.674454 C281.40023,108.320765 281.18049,108.014673 280.869343,107.830554 C280.558197,107.646435 280.184128,107.601145 279.838032,107.705688 L271.945223,109.718317 C271.590153,109.791479 271.282173,110.010487 271.096495,110.321856 C270.910816,110.633224 270.864533,111.008289 270.968947,111.355456 L271.404516,113.045163 C271.47055,113.434387 271.699054,113.777139 272.032944,113.98779 C272.366833,114.198441 272.774574,114.257097 273.154302,114.149105 L273.154302,114.149105 Z" id="形状"></path>
                <polygon id="路径" points="287.80594 126.330016 271.584752 128.582959 271.141673 125.413819 287.362862 123.160876"></polygon>
                <path d="M285.335213,146.366188 L276.473638,146.598992 C273.995401,146.598992 272.718733,145.352363 272.576047,142.844087 L272.493439,139.682457 C272.538498,137.20422 273.687498,135.882494 275.955461,135.717278 L284.892134,135.484474 C287.377881,135.484474 288.699608,136.81371 288.872333,139.337006 L288.954941,142.423538 C288.859817,144.83669 287.653241,146.150906 285.335213,146.366188 Z M276.706442,143.437362 L284.779487,143.227087 C285.152143,143.224807 285.50652,143.065316 285.755344,142.787891 C286.004168,142.510467 286.124314,142.140892 286.086194,141.770184 L286.041135,139.95281 C286.046221,139.591431 285.899672,139.24445 285.637077,138.996127 C285.374482,138.747803 285.019862,138.620853 284.65933,138.646103 L276.511187,138.856378 C276.149792,138.846803 275.801281,138.990899 275.55217,139.252895 C275.303059,139.514891 275.176707,139.87022 275.20448,140.230673 L275.249539,141.972949 C275.227748,142.366289 275.373968,142.750388 275.65181,143.029663 C275.929653,143.308938 276.312995,143.45713 276.706442,143.437362 L276.706442,143.437362 Z" id="形状"></path>
                <polygon id="路径" points="288.279058 158.569628 271.960242 157.157784 272.245615 153.921056 288.556921 155.34041"></polygon>
                <path d="M281.400073,177.539407 L272.711223,175.789621 C270.293064,175.248915 269.306776,173.731934 269.752358,171.238677 L270.383182,168.137125 C270.97896,165.72898 272.398314,164.695129 274.641244,165.035574 L283.405192,166.800379 C285.813337,167.396158 286.814645,168.945682 286.409116,171.448951 L285.800821,174.452875 C285.175004,176.805949 283.708088,177.834793 281.400073,177.539407 Z M273.649949,172.725619 L281.580308,174.340228 C281.944717,174.421371 282.326452,174.345528 282.632164,174.131243 C282.937877,173.916958 283.139383,173.583989 283.187407,173.213757 L283.540368,171.426422 C283.629213,171.075365 283.565708,170.703114 283.365498,170.401368 C283.165288,170.099623 282.846983,169.896433 282.488995,169.841852 L274.476028,168.219733 C274.124971,168.130889 273.75272,168.194394 273.450974,168.394604 C273.149229,168.594814 272.946039,168.913119 272.891459,169.271107 L272.546007,170.975833 C272.440494,171.355454 272.500216,171.761982 272.710454,172.095216 C272.920692,172.42845 273.261889,172.657395 273.649949,172.725619 Z" id="形状"></path>
                <polygon id="路径" points="281.580308 190.073279 265.982434 185.064236 266.973729 181.977704 282.556583 186.994257"></polygon>
                <path d="M270.653535,207.060468 L262.57298,203.42572 C260.325044,202.369341 259.696723,200.672124 260.688018,198.33407 L261.987215,195.450303 C263.098667,193.227399 264.710773,192.533993 266.823532,193.370085 L274.979186,197.027363 C277.202089,198.138815 277.842926,199.871077 276.901697,202.224151 L275.632539,205.0178 C274.501061,207.180625 272.841393,207.861515 270.653535,207.060468 Z M264.15004,200.66962 L271.517163,203.973937 C271.854642,204.133487 272.243852,204.14289 272.588642,203.999824 C272.933432,203.856757 273.201647,203.574563 273.327028,203.222956 L274.078008,201.555778 C274.242767,201.233847 274.26326,200.857144 274.134399,200.51924 C274.005537,200.181335 273.739411,199.913936 273.402126,199.783463 L265.967414,196.441598 C265.643654,196.281452 265.267839,196.263319 264.930164,196.39155 C264.59249,196.519781 264.323441,196.782799 264.187589,197.11748 L263.474157,198.70956 C263.280793,199.055067 263.244029,199.466662 263.373101,199.840969 C263.502172,200.215276 263.784815,200.516731 264.15004,200.66962 L264.15004,200.66962 Z" id="形状"></path>
                <path d="M262.873373,220.7884 L255.243406,216.282514 C253.135653,214.975807 252.700084,213.223519 253.936699,211.025648 L255.551308,208.299587 C256.903074,206.221873 258.580265,205.721219 260.582881,206.797625 L268.287945,211.34106 C270.365659,212.692825 270.808738,214.48767 269.617182,216.725593 L268.062651,219.331497 C266.67584,221.339119 264.94608,221.824754 262.873373,220.7884 Z M257.120859,213.721669 L264.074942,217.822025 C264.391665,218.016783 264.775772,218.069132 265.133062,217.966232 C265.490351,217.863333 265.787776,217.614703 265.952395,217.281319 L266.883611,215.711769 C267.081509,215.408502 267.142168,215.035777 267.050643,214.685408 C266.959118,214.33504 266.723919,214.0396 266.402983,213.871865 L259.388821,209.726451 C259.084373,209.528312 258.710568,209.467522 258.359024,209.55898 C258.007481,209.650438 257.710694,209.885692 257.541408,210.207078 L256.66276,211.70904 C256.441395,212.029811 256.364942,212.428812 256.452057,212.80869 C256.539172,213.188569 256.781843,213.514388 257.120859,213.70665 L257.120859,213.721669 Z" id="形状"></path>
                <path d="M253.613778,233.555076 L246.532027,228.230621 C244.579477,226.69862 244.344169,224.903776 245.826105,222.846088 L247.726087,220.315282 C249.303147,218.397777 251.030403,218.077359 252.907855,219.354026 L260.049684,224.73105 C261.972196,226.30811 262.222522,228.138 260.800665,230.220721 L258.945742,232.691448 C257.34365,234.523842 255.566328,234.811718 253.613778,233.555076 Z M248.687342,225.887561 L255.138269,230.738898 C255.431829,230.968905 255.808896,231.064191 256.176483,231.001257 C256.54407,230.938324 256.867964,230.723029 257.06829,230.408466 L258.164722,228.959073 C258.396425,228.679898 258.499228,228.315741 258.44772,227.956615 C258.396211,227.597488 258.195199,227.276906 257.894369,227.074111 L251.383364,222.170205 C251.104189,221.938502 250.740032,221.835699 250.380906,221.887207 C250.02178,221.938716 249.701197,222.139728 249.498402,222.440558 L248.454538,223.792324 C248.183542,224.088133 248.053643,224.486645 248.098261,224.885332 C248.14288,225.284018 248.357659,225.643956 248.687342,225.872541 L248.687342,225.887561 Z" id="形状"></path>
                <polygon id="路径" points="193.715537 243.190162 188.000572 232.248369 190.170907 231.114388 195.878362 242.06369"></polygon>
                <path d="M178.838604,246.509498 L176.442975,240.313905 C175.812151,238.556609 176.37789,237.304974 178.140192,236.559 L180.393135,235.702882 C182.160443,235.102097 183.389549,235.585228 184.080451,237.152275 L186.50612,243.437986 C187.106904,245.210301 186.531152,246.476955 184.778863,247.237949 L182.608528,248.071538 C180.821194,248.619754 179.582075,248.101577 178.838604,246.509498 Z M178.740977,239.645532 L180.933841,245.322948 C181.029114,245.587821 181.232501,245.799701 181.493258,245.905723 C181.754015,246.011745 182.04755,246.001911 182.300626,245.878674 L183.577294,245.383026 C183.836173,245.297905 184.047229,245.107684 184.158702,244.859012 C184.270176,244.61034 184.271757,244.326217 184.163059,244.076319 L181.947665,238.346335 C181.860835,238.08695 181.669172,237.875889 181.419333,237.764532 C181.169494,237.653175 180.884398,237.651738 180.633449,237.76057 L179.416859,238.233688 C179.130223,238.317565 178.892785,238.519388 178.763826,238.788768 C178.634868,239.058148 178.62656,239.369661 178.740977,239.645532 L178.740977,239.645532 Z" id="形状"></path>
                <polygon id="路径" points="170.923265 251.691266 167.799184 239.750669 170.164774 239.127355 173.288855 251.075462"></polygon>
                <polygon id="路径" points="158.990177 253.966739 157.225372 241.748278 159.643531 241.402827 161.423356 253.621287"></polygon>
                <polygon id="路径" points="146.891874 254.905465 146.486345 242.566848 148.934543 242.48424 149.340072 254.822857"></polygon>
                <path d="M132.135099,251.480992 L132.645766,244.8273 C132.826001,242.964868 133.877374,242.08622 135.777356,242.198867 L138.157966,242.379102 C140.012889,242.604397 140.914066,243.565652 140.861497,245.277889 L140.34332,251.999168 C140.123033,253.851588 139.05664,254.745255 137.144142,254.68017 L134.83112,254.499935 C132.99372,254.244602 132.095046,253.238287 132.135099,251.480992 Z M135.003846,245.24785 L134.538238,251.308266 C134.51073,251.588328 134.602643,251.867 134.791369,252.075743 C134.980096,252.284486 135.248124,252.40393 135.529533,252.404698 L136.896318,252.509836 C137.166919,252.543793 137.439299,252.462117 137.646567,252.284867 C137.853836,252.107616 137.976792,251.851211 137.98524,251.578619 L138.458358,245.450615 C138.492315,245.180014 138.41064,244.907634 138.233389,244.700365 C138.056139,244.493097 137.799734,244.370141 137.527142,244.361692 L136.220435,244.264065 C135.92114,244.207153 135.611875,244.282866 135.372717,244.471599 C135.13356,244.660331 134.988029,244.943524 134.973807,245.24785 L135.003846,245.24785 Z" id="形状"></path>
                <polygon id="路径" points="122.725307 252.750149 125.045838 240.629317 127.448977 241.087415 125.128446 253.208248"></polygon>
                <path d="M109.012395,246.126497 L111.002495,239.750669 C111.598273,237.978354 112.809855,237.35504 114.637242,237.880727 L116.890185,238.594158 C118.647481,239.224982 119.315854,240.366474 118.880285,242.026141 L116.875166,248.454538 C116.251851,250.219344 115.012733,250.850168 113.16532,250.36203 L110.912377,249.671128 C109.260219,249.017774 108.606865,247.823714 109.012395,246.126497 Z M113.202869,240.689395 L111.400515,246.494478 C111.313659,246.764751 111.345917,247.059215 111.489226,247.304274 C111.632535,247.549333 111.873355,247.721831 112.151495,247.778656 L113.465712,248.191695 C113.722471,248.282634 114.005546,248.26217 114.246556,248.135248 C114.487566,248.008326 114.664592,247.786487 114.73487,247.523322 L116.559754,241.658161 C116.65311,241.401475 116.633771,241.117306 116.5065,240.875635 C116.379229,240.633963 116.155853,240.457247 115.891381,240.389003 L114.637242,239.998493 C114.356853,239.876607 114.037294,239.88281 113.761846,240.015487 C113.486398,240.148163 113.282346,240.39417 113.202869,240.689395 L113.202869,240.689395 Z" id="形状"></path>
                <polygon id="路径" points="99.5950939 245.270379 104.559078 233.968116 106.812021 234.951901 101.848037 246.254164"></polygon>
                <polygon id="路径" points="88.8335369 239.653042 95.0291297 228.974092 97.146896 230.205701 90.9513032 240.877141"></polygon>
                <path d="M78.06447,228.876465 L82.0371593,223.514461 C83.1886634,222.012499 84.5404291,221.824754 86.0924564,222.951225 L88.0074578,224.370579 C89.4643609,225.552123 89.7146879,226.85132 88.7584388,228.26817 L84.7482005,233.682743 C83.5691604,235.139646 82.1948653,235.327391 80.6102955,234.253489 L78.7403529,232.871684 C77.3635545,231.685134 77.1382602,230.353394 78.06447,228.876465 Z M83.8169841,225.12156 L80.1972559,230.010446 C80.0245108,230.232921 79.9537312,230.517992 80.0023543,230.79543 C80.0509774,231.072868 80.2144828,231.316879 80.4525895,231.467349 L81.5565315,232.285918 C81.7696629,232.456182 82.0443098,232.529509 82.3139449,232.488136 C82.58358,232.446764 82.8236073,232.294466 82.9758855,232.068134 L86.6331627,227.134189 C86.8034265,226.921058 86.876753,226.646411 86.8353804,226.376776 C86.7940078,226.107141 86.6417101,225.867113 86.4153782,225.714835 L85.3640049,224.963854 C85.1449294,224.776349 84.8584558,224.687054 84.5716401,224.716872 C84.2848244,224.746689 84.0228446,224.893001 83.8470234,225.12156 L83.8169841,225.12156 Z" id="形状"></path>
                <path d="M69.2479536,220.923577 L73.7538394,216.034691 C75.0605462,214.697945 76.4198217,214.660395 77.8466855,215.929553 L79.5889614,217.559182 C80.9056813,218.890922 81.0108186,220.207641 79.9043734,221.509342 L75.3158797,226.443287 C73.9866435,227.757503 72.5898189,227.795052 71.1404256,226.555934 L69.4356989,224.971364 C68.2191097,223.634618 68.1440116,222.290362 69.2479536,220.923577 Z M75.3759582,217.837045 L71.2380532,222.290362 C71.0325975,222.492704 70.924619,222.773969 70.9418899,223.061816 C70.9591607,223.349663 71.0999952,223.616 71.3281709,223.792324 L72.3344854,224.72354 C72.5255073,224.917967 72.7891103,225.023685 73.0615397,225.015127 C73.3339691,225.006569 73.5904169,224.884514 73.768859,224.678481 L77.9518229,220.172596 C78.1474833,219.981667 78.253366,219.716958 78.2433536,219.443761 C78.2333412,219.170565 78.1083657,218.914316 77.8992542,218.738222 L76.9379986,217.844555 C76.7396947,217.622362 76.4564615,217.494694 76.1586493,217.49325 C75.860837,217.491831 75.5763894,217.616769 75.3759582,217.837045 L75.3759582,217.837045 Z" id="形状"></path>
                <path d="M61.3401242,212.046982 L66.4092456,207.691292 C67.8511291,206.504742 69.2079013,206.622396 70.4795624,208.044253 L72.0566224,209.854117 C73.2181396,211.321034 73.175584,212.64276 71.9289556,213.819297 L66.7997557,218.212535 C65.2977938,219.369046 63.9460281,219.248889 62.6393213,217.852065 L61.1373594,216.087259 C60.0259075,214.62535 60.0934958,213.278591 61.3401242,212.046982 Z M67.7835408,209.658862 L63.1650079,213.624042 C62.9420669,213.805158 62.807148,214.072911 62.7942354,214.359859 C62.7813227,214.646806 62.8916472,214.925596 63.0974196,215.126004 L63.991087,216.169867 C64.1607649,216.384206 64.4125358,216.517584 64.6851751,216.537568 C64.9578144,216.557552 65.2263428,216.462311 65.4254606,216.275005 L70.0815425,212.272276 C70.2979107,212.103957 70.4328394,211.85185 70.4528789,211.578454 C70.4729183,211.305059 70.3761923,211.035972 70.1866798,210.837902 L69.3305615,209.846608 C69.1607072,209.602194 68.894595,209.44191 68.5991243,209.406052 C68.3036536,209.370194 68.0069273,209.462172 67.7835408,209.658862 L67.7835408,209.658862 Z" id="形状"></path>
                <polygon id="路径" points="53.8002754 206.332017 63.9985968 199.370423 65.3804017 201.390562 55.1820804 208.344646"></polygon>
                <path d="M48.7762129,191.988281 L54.6789232,188.8642 C56.3461009,188.023101 57.682847,188.44365 58.5765143,190.110828 L59.6879661,192.213575 C60.4915157,193.903282 60.1610841,195.217499 58.6891614,196.051087 L52.7338825,199.205207 C51.0466786,200.01126 49.7199456,199.590711 48.7536834,197.943559 L47.6647611,195.885872 C46.903767,194.213687 47.274251,192.91449 48.7762129,191.988281 Z M55.5801003,191.087103 L50.2105865,193.933321 C49.958556,194.057897 49.7712757,194.28363 49.6953663,194.554325 C49.6194569,194.825021 49.6620587,195.115218 49.8125666,195.352675 L50.4584102,196.569264 C50.5747848,196.815118 50.7891562,197.000721 51.0491335,197.080714 C51.3091108,197.160708 51.590741,197.12772 51.8251955,196.989814 L57.2547878,194.113557 C57.5006415,193.997182 57.686245,193.782811 57.766238,193.522833 C57.846231,193.262856 57.8132434,192.981226 57.6753372,192.746771 L57.0370034,191.582751 C56.919487,191.3128 56.6934358,191.105029 56.414556,191.010639 C56.1356762,190.916249 55.8299036,190.944018 55.5725905,191.087103 L55.5801003,191.087103 Z" id="形状"></path>
                <polygon id="路径" points="42.6782475 184.741314 54.1682561 180.235429 55.0619234 182.488371 43.5719149 186.994257"></polygon>
                <path d="M40.966011,169.609048 L47.4169373,167.881792 C49.2268014,167.438713 50.4208612,168.129616 50.939038,169.962009 L51.5548424,172.267521 C51.9603721,174.092404 51.3520775,175.271445 49.7149391,175.782112 L43.211444,177.531897 C41.384057,177.937427 40.1849908,177.229002 39.6142453,175.406621 L39.0134605,173.153678 C38.6529896,171.366344 39.3038398,170.1848 40.966011,169.609048 Z M47.7999376,170.247382 L41.9272666,171.824442 C41.6538559,171.890923 41.4215796,172.070464 41.2883497,172.3183 C41.1551197,172.566136 41.1334903,172.858915 41.2288543,173.123639 L41.5818153,174.445365 C41.6317088,174.717759 41.7957887,174.955779 42.0326147,175.09931 C42.2694407,175.242841 42.5563696,175.27816 42.8209339,175.196346 L48.7536834,173.604267 C49.0260771,173.554373 49.2640968,173.390293 49.4076277,173.153467 C49.5511587,172.916641 49.5864776,172.629713 49.5046644,172.365148 L49.1592132,171.09599 C49.1167444,170.789507 48.9404985,170.517656 48.678036,170.353798 C48.4155734,170.18994 48.0939431,170.150962 47.7999376,170.247382 L47.7999376,170.247382 Z" id="形状"></path>
                <path d="M39.0134605,157.878726 L45.6145831,156.887431 C47.469506,156.647117 48.5584284,157.473196 48.8813502,159.350648 L49.2343113,161.708729 C49.4345728,163.571161 48.6961082,164.667593 47.0189174,164.998025 L40.3577164,166.00434 C38.4952836,166.199595 37.3537926,165.366006 37.023361,163.488553 L36.6779097,161.190552 C36.5076874,159.368171 37.2862043,158.264229 39.0134605,157.878726 Z M45.7722891,159.28306 L39.7644414,160.184237 C39.4852533,160.22137 39.2347189,160.37465 39.0745515,160.606321 C38.9143842,160.837992 38.8594725,161.126517 38.9233428,161.400826 L39.1261076,162.752592 C39.1547854,163.024632 39.2962794,163.272162 39.5161409,163.434916 C39.7360023,163.597671 40.0140606,163.660719 40.2826183,163.60871 L46.3580542,162.692514 C46.6281272,162.663861 46.8737707,162.523158 47.0351203,162.304693 C47.1964698,162.086229 47.2587064,161.810068 47.2066627,161.543513 L47.0114076,160.244316 C46.9962301,159.931502 46.8414052,159.642031 46.5896429,159.455756 C46.3378805,159.269481 46.0157855,159.206087 45.7122106,159.28306 L45.7722891,159.28306 Z" id="形状"></path>
                <polygon id="路径" points="35.6490658 149.03217 47.9801731 148.566562 48.0778006 151.00725 35.7391835 151.480368"></polygon>
                <polygon id="路径" points="36.0095367 136.926357 48.3181145 137.812515 48.1453889 140.245693 35.8368111 139.367045"></polygon>
                <polygon id="路径" points="37.6616948 124.903152 49.8050568 127.156095 49.3544682 129.559234 37.218616 127.306291"></polygon>
                <path d="M44.2102487,111.145181 L50.5935868,113.090222 C52.3734116,113.675987 52.9967258,114.885066 52.4860588,116.71746 L51.7876465,118.970403 C51.1643323,120.735208 50.0303511,121.411091 48.3706832,120.983031 L41.9197568,119.022971 C40.1624613,118.399657 39.5166177,117.168048 39.9972455,115.320635 L40.6731284,113.067692 C41.318972,111.405521 42.4980121,110.764684 44.2102487,111.145181 Z M49.6698802,115.305615 L43.8572876,113.5333 C43.5870017,113.443901 43.2913258,113.475021 43.0455755,113.618735 C42.7998252,113.762448 42.627724,114.004882 42.5731102,114.284281 L42.1750903,115.598498 C42.0817995,115.854192 42.1012795,116.137448 42.2286952,116.377963 C42.356111,116.618479 42.579517,116.793703 42.8434633,116.860146 L48.7236442,118.654991 C48.9804963,118.743245 49.2625027,118.720516 49.5019049,118.592264 C49.7413072,118.464013 49.9164648,118.241833 49.9852922,117.979108 L50.3682925,116.724969 C50.4794187,116.447914 50.4666146,116.136538 50.3331164,115.869542 C50.1996183,115.602546 49.9582004,115.405477 49.6698802,115.328145 L49.6698802,115.305615 Z" id="形状"></path>
                <polygon id="路径" points="45.0213081 101.73539 56.3385911 106.639295 55.3698256 108.892238 44.0375231 103.988333"></polygon>
                <path d="M54.4611387,89.7872827 L60.2587116,93.1216381 C61.8557978,94.0828937 62.1987458,95.402117 61.2875555,97.0793077 L60.1010056,99.1294857 C59.0996977,100.706546 57.8480628,101.104566 56.3461009,100.323545 L50.5034691,96.9741704 C48.9188993,95.9753657 48.573448,94.6311098 49.4520957,92.9338929 L50.6086064,90.9137541 C51.6049078,89.381753 52.8890852,89.0062625 54.4611387,89.7872827 Z M58.8618871,95.0441494 L53.6050204,92.0402256 C53.3641181,91.8936546 53.0724839,91.8557443 52.8021148,91.9358536 C52.5317457,92.015963 52.3078371,92.2066268 52.1856664,92.4607749 L51.5097835,93.6548346 C51.3630345,93.8838401 51.3193146,94.1639875 51.3893074,94.4268178 C51.4593003,94.6896481 51.6365579,94.9109483 51.8777642,95.0366396 L57.209729,98.093132 C57.4396826,98.2393318 57.7205761,98.2819256 57.9835344,98.2104695 C58.2464927,98.1390135 58.4671982,97.9601156 58.5915339,97.7176416 L59.2448874,96.5836603 C59.4138379,96.3366414 59.4686414,96.0289893 59.395382,95.7388243 C59.3221225,95.4486594 59.1278471,95.2038935 58.8618871,95.0666788 L58.8618871,95.0441494 Z" id="形状"></path>
                <polygon id="路径" points="57.3373957 80.7830211 67.2954032 88.0750461 65.8535197 90.050126 55.8955123 82.7505912"></polygon>
                <path d="M69.1878752,71.2380532 L74.1068004,75.7439389 C75.4510563,77.0431359 75.4961152,78.4024115 74.2344672,79.8367851 L72.6198581,81.5940805 C71.2906218,82.915807 69.9764052,83.0284541 68.6621885,81.9245121 L63.7057142,77.3510381 C62.3839877,76.0192986 62.3389289,74.6274805 63.5705376,73.175584 L65.1475976,71.4633475 C66.4693241,70.2317387 67.8210898,70.141621 69.1878752,71.2380532 Z M72.3119559,77.3510381 L67.8060702,73.2281527 C67.6005177,73.0267101 67.318551,72.9229183 67.0314498,72.9430154 C66.7443487,72.9631125 66.4795918,73.1051749 66.3041083,73.33329 L65.4329704,74.3471143 C65.2407348,74.538862 65.1377901,74.8024817 65.1492123,75.0737587 C65.1606345,75.3450358 65.2853751,75.5990687 65.4930489,75.7739781 L69.9989346,79.9344126 C70.1908926,80.1291701 70.4562203,80.2337292 70.7294371,80.2222855 C71.0026539,80.2108419 71.2583087,80.0844616 71.4333082,79.8743341 L72.3194657,78.9055687 C72.5415945,78.7077589 72.6680241,78.4240438 72.6665993,78.1266084 C72.6651503,77.8291729 72.5359855,77.5466925 72.3119559,77.3510381 Z" id="形状"></path>
                <polygon id="路径" points="73.9716238 63.0824 82.0747083 72.3945638 80.2272952 74.0016631 72.1242107 64.7045189"></polygon>
                <path d="M87.6394772,56.3986695 L91.3943819,61.8958501 C92.4257291,63.4578905 92.1754021,64.7971399 90.643401,65.9135982 L88.6833407,67.2653639 C87.1012742,68.2666719 85.7895608,68.0864364 84.7482005,66.7246576 L80.9181976,61.1749084 C79.919393,59.5978484 80.1672167,58.2310631 81.7142375,57.0820622 L83.6217291,55.7603357 C85.2138087,54.8216095 86.543045,55.0318842 87.6394772,56.3986695 Z M89.3291843,63.0824 L85.8746719,58.0508276 C85.7178223,57.8192868 85.4716927,57.663461 85.195312,57.6207217 C84.9189312,57.5779824 84.6372302,57.6521849 84.4177689,57.8255334 L83.3213367,58.5765143 C83.0895626,58.7211996 82.9296626,58.957031 82.881038,59.2258966 C82.8324133,59.4947622 82.8995858,59.7716598 83.0660032,59.9883585 L86.5580646,65.0424603 C86.7012564,65.2738097 86.9357816,65.4336413 87.2034709,65.4823121 C87.4711602,65.5309829 87.7469365,65.4639333 87.962399,65.2977938 L89.0438116,64.5468129 C89.276628,64.3910954 89.4376863,64.1489165 89.4912605,63.8739961 C89.5448347,63.5990757 89.4864958,63.3141424 89.3291843,63.0824 L89.3291843,63.0824 Z" id="形状"></path>
                <polygon id="路径" points="94.112933 49.5121742 99.948055 60.3863784 97.8002495 61.5804381 91.9576176 50.6686849"></polygon>
                <path d="M108.922277,46.0201128 L111.400515,52.2157056 C112.061378,53.9730011 111.505652,55.2196294 109.748356,55.9706104 L107.540472,56.8567679 C105.768157,57.4725723 104.536549,57.0069641 103.830627,55.4524335 L101.34488,49.1892524 C100.729075,47.4244472 101.284801,46.1853286 103.027077,45.3667593 L105.189902,44.5031313 C106.909648,43.9323857 108.156277,44.435543 108.922277,46.0201128 Z M109.095003,52.8840787 L106.84206,47.2367019 C106.742013,46.9740314 106.535918,46.7656741 106.274356,46.6627643 C106.012793,46.5598546 105.719976,46.5719186 105.467765,46.6959956 L104.191097,47.2066627 C103.932853,47.2943323 103.724003,47.4875701 103.616573,47.7382396 C103.509143,47.988909 103.513247,48.2734127 103.627862,48.5208793 L105.880805,54.2208248 C105.968859,54.4789416 106.161633,54.6879871 106.411785,54.7966244 C106.661936,54.9052617 106.946292,54.9034268 107.195021,54.7915703 L108.41912,54.3034327 C108.707692,54.2198586 108.946726,54.016826 109.075891,53.7455793 C109.205056,53.4743326 109.212012,53.1607866 109.095003,52.8840787 L109.095003,52.8840787 Z" id="形状"></path>
                <polygon id="路径" points="116.770028 40.7407167 120.044305 52.6437648 117.686225 53.2896084 114.419458 41.3865603"></polygon>
                <polygon id="路径" points="128.680586 38.3000286 130.633137 50.5184887 128.214978 50.8939792 126.299977 38.6980485"></polygon>
                <polygon id="路径" points="140.76387 37.2411454 141.312086 49.5647429 138.871398 49.6698802 138.315672 37.338773"></polygon>
                <polygon id="路径" points="152.877193 37.5039888 152.073643 49.8200764 149.632955 49.6623704 150.436504 37.3462828"></polygon>
                <polygon id="路径" points="164.900398 39.0960684 162.737572 51.2469402 160.326924 50.8188811 162.489749 38.6680093"></polygon>
                <path d="M178.695918,45.5469948 L176.788426,51.9528623 C176.217681,53.7326872 175.016111,54.3635112 173.176208,53.8603539 L170.885716,53.1844711 C169.120911,52.5686667 168.437518,51.4346854 168.850557,49.7750175 L170.773069,43.3165813 C171.383866,41.5542794 172.612972,40.9034292 174.460385,41.3640309 L176.713328,42.0248941 C178.420558,42.6657312 179.081421,43.8397647 178.695918,45.5469948 Z M174.573032,51.0667048 L176.307798,45.2315828 C176.392146,44.9622832 176.358638,44.6698699 176.215557,44.4266321 C176.072475,44.1833943 175.833176,44.0120343 175.556817,43.9549152 L174.25011,43.5568953 C173.992271,43.4664208 173.708213,43.4890442 173.467944,43.6191899 C173.227675,43.7493355 173.053543,43.9748985 172.988462,44.2402879 L171.238677,50.1279786 C171.148202,50.3858184 171.170826,50.6698764 171.300971,50.9101452 C171.431117,51.150414 171.65668,51.3245464 171.922069,51.3896266 L173.176208,51.7651171 C173.453541,51.8712846 173.762711,51.8561166 174.02832,51.7233118 C174.29393,51.5905071 174.491566,51.3522722 174.573032,51.0667048 Z" id="形状"></path>
                <polygon id="路径" points="188.120729 46.2829561 183.291921 57.6452979 181.038978 56.6915521 185.860276 45.3292103"></polygon>
                <path d="M200.113894,55.6476886 L196.832108,61.4602812 C195.880865,63.0673804 194.564145,63.4203414 192.881948,62.5191643 L190.801731,61.347634 C189.217161,60.3563392 188.804121,59.0946912 189.577632,57.5927293 L192.889458,51.727568 C193.880753,50.1354884 195.225008,49.7825273 196.922225,50.6461554 L198.949874,51.7876465 C200.466855,52.7789414 200.854862,54.065622 200.113894,55.6476886 Z M194.857028,60.0784762 L197.860952,54.8216095 C198.00393,54.579412 198.038169,54.2881573 197.955256,54.0194048 C197.872343,53.7506523 197.679963,53.5293118 197.425383,53.4097654 L196.231323,52.7338825 C195.998891,52.5911069 195.717327,52.5520856 195.454828,52.6262702 C195.192328,52.7004548 194.972837,52.8810787 194.849518,53.1243926 L191.845594,58.471377 C191.699933,58.7022801 191.658461,58.9839256 191.731382,59.2470149 C191.804304,59.5101041 191.984849,59.7302123 192.228594,59.8531819 L193.377595,60.4990255 C193.627813,60.6573571 193.9335,60.7019729 194.218533,60.6217625 C194.503566,60.5415521 194.741124,60.3440636 194.872047,60.0784762 L194.857028,60.0784762 Z" id="形状"></path>
                <polygon id="路径" points="209.148195 58.4638672 201.923759 68.4669335 199.941169 67.0400696 207.165606 57.0294935"></polygon>
                <path d="M218.768261,70.2467583 L214.262376,75.188213 C212.978198,76.5474885 211.611413,76.6000572 210.177039,75.345919 L208.404724,73.7463295 C207.077991,72.4346162 206.957834,71.1178962 208.044253,69.7961697 L212.550139,64.8021464 C213.866859,63.4704068 215.258677,63.4178382 216.725593,64.6444404 L218.497908,66.2064808 C219.767066,67.5206975 219.857184,68.8724632 218.768261,70.2467583 Z M212.677806,73.4158979 L216.763142,68.9100122 C216.966074,68.7045727 217.070161,68.4213592 217.048564,68.1334003 C217.026967,67.8454415 216.8818,67.5809221 216.650495,67.4080503 L215.636671,66.4843437 C215.44259,66.2926477 215.177158,66.190896 214.904669,66.2037358 C214.632181,66.2165755 214.377493,66.3428355 214.202297,66.551932 L210.079412,71.1028766 C209.885549,71.295861 209.782308,71.561809 209.795184,71.8350487 C209.808059,72.1082885 209.93585,72.3633502 210.147,72.5372502 L211.115765,73.4158979 C211.315135,73.6371289 211.598975,73.7634294 211.896786,73.7634294 C212.194597,73.7634294 212.478436,73.6371289 212.677806,73.4158979 Z" id="形状"></path>
                <polygon id="路径" points="226.946444 74.9704285 217.694359 83.1411013 216.07224 81.3011979 225.331835 73.138035"></polygon>
                <path d="M233.735312,88.6157524 L228.26817,92.4457553 C226.71364,93.4896188 225.376894,93.2342853 224.250422,91.6947743 L222.876127,89.734714 C221.869813,88.1651638 222.042538,86.8509472 223.394304,85.8070836 L228.914014,81.9320219 C230.491074,80.930714 231.857859,81.181041 233.01437,82.6830029 L234.351116,84.5904945 C235.297352,86.1525349 235.092084,87.4942875 233.735312,88.6157524 Z M227.09664,90.3580282 L232.075644,86.8659668 C232.321165,86.7087345 232.485729,86.4520742 232.526153,86.1633378 C232.566576,85.8746015 232.478822,85.5826166 232.285918,85.3640049 L231.497388,84.2450433 C231.353046,84.0125444 231.116449,83.8525895 230.846909,83.8052766 C230.577369,83.7579637 230.30044,83.8277785 230.085544,83.9972196 L225.061482,87.5193202 C224.828983,87.6636627 224.669028,87.9002595 224.621715,88.1697997 C224.574402,88.43934 224.644217,88.7162687 224.813658,88.9311644 L225.564639,90.012577 C225.715543,90.2695258 225.967728,90.4509981 226.259306,90.5124581 C226.550883,90.573918 226.854861,90.5096763 227.09664,90.3354988 L227.09664,90.3580282 Z" id="形状"></path>
                <polygon id="路径" points="240.666866 95.0141101 229.837721 100.93184 228.66619 98.7840345 239.525375 92.8663046"></polygon>
                <path d="M244.271574,109.808435 L238.091001,112.331731 C236.341216,113.000104 235.087077,112.459398 234.336096,110.709612 L233.434919,108.501728 C232.804095,106.73442 233.264697,105.495301 234.816724,104.784372 L241.049866,102.231037 C242.817175,101.600213 244.096346,102.153436 244.887379,103.890705 L245.766027,106.04602 C246.346785,107.78329 245.848634,109.037428 244.271574,109.808435 Z M237.407609,110.033729 L243.039966,107.735727 C243.301295,107.634159 243.507902,107.42743 243.609315,107.166041 C243.710729,106.904651 243.697609,106.612673 243.573162,106.361432 L243.054985,105.092275 C242.966003,104.83338 242.770856,104.624708 242.518497,104.518602 C242.266137,104.412496 241.980508,104.419024 241.733259,104.536549 L236.048333,106.85708 C235.789439,106.946062 235.580766,107.141209 235.474661,107.393569 C235.368555,107.645928 235.375083,107.931557 235.492607,108.178806 L235.988255,109.387886 C236.076388,109.672454 236.281906,109.90581 236.553058,110.029191 C236.824211,110.152573 237.135161,110.154224 237.407609,110.033729 L237.407609,110.033729 Z" id="形状"></path>
                <path d="M247.696048,121.200816 L241.267651,123.01068 C239.457787,123.483798 238.263727,122.800405 237.723021,120.975522 L237.077177,118.67752 C236.641608,116.860146 237.242393,115.673596 238.864512,115.1404 L245.352987,113.315516 C247.170361,112.879947 248.356911,113.578359 248.972715,115.388223 L249.603539,117.641166 C249.989043,119.428501 249.353212,120.615051 247.696048,121.200816 Z M240.854611,120.6526 L246.704753,119.000442 C246.977266,118.930796 247.207364,118.748662 247.337716,118.499417 C247.468068,118.250173 247.4864,117.957288 247.388145,117.693735 L247.035184,116.402048 C246.973306,116.135721 246.801766,115.907944 246.562888,115.774916 C246.324011,115.641888 246.040042,115.615999 245.781046,115.703635 L239.870826,117.370813 C239.605035,117.430859 239.377218,117.600889 239.244035,117.838613 C239.110852,118.076337 239.08482,118.359415 239.172414,118.617441 L239.525375,119.879089 C239.589985,120.163439 239.769786,120.408185 240.021817,120.554847 C240.273847,120.701509 240.575468,120.736913 240.854611,120.6526 Z" id="形状"></path>
                <path d="M249.813814,132.923629 L243.227711,133.997531 C241.370285,134.262878 240.271349,133.454322 239.930905,131.571863 L239.547904,129.221293 C239.32261,127.36637 240.051062,126.217369 241.725749,125.901957 L248.37193,124.820544 C250.226853,124.59525 251.375854,125.421329 251.736325,127.291271 L252.111816,129.589273 C252.292051,131.421667 251.54107,132.510589 249.813814,132.923629 Z M243.054985,131.601902 L249.062833,130.625627 C249.34203,130.587187 249.591667,130.431724 249.749319,130.198112 C249.906971,129.9645 249.957733,129.674827 249.888912,129.401528 L249.671128,128.049762 C249.638827,127.778855 249.494642,127.533823 249.273505,127.374034 C249.052368,127.214245 248.774457,127.154278 248.507107,127.208664 L242.446691,128.199958 C242.175784,128.232259 241.930751,128.376444 241.770962,128.597581 C241.611173,128.818718 241.551207,129.096628 241.605592,129.363979 L241.815867,130.655666 C241.843765,130.953754 241.997423,131.22581 242.238305,131.403603 C242.479187,131.581397 242.784442,131.648063 243.077515,131.586883 L243.054985,131.601902 Z" id="形状"></path>
                <polygon id="路径" points="253.268326 141.702596 240.937219 142.32591 240.817062 139.885222 253.148169 139.261908"></polygon>
                <path d="M250.106696,156.587038 L243.437986,156.189019 C241.575553,156.038822 240.681886,155.009978 240.756984,153.102487 L240.89967,150.721877 C241.094925,148.859444 242.041161,147.935738 243.753398,147.958267 L250.512226,148.363797 C252.367149,148.551542 253.283346,149.602916 253.245797,151.517917 L253.11062,153.838448 C252.847777,155.655822 251.863992,156.572019 250.106696,156.587038 Z M243.820986,153.823429 L249.888912,154.183899 C250.170442,154.207312 250.448719,154.11041 250.654814,153.917196 C250.860909,153.723982 250.975545,153.452528 250.970325,153.170075 L251.052932,151.80329 C251.080264,151.531791 250.992723,151.261243 250.811526,151.057218 C250.630328,150.853193 250.372014,150.734312 250.099187,150.729387 L243.971182,150.361406 C243.699175,150.331698 243.42729,150.418404 243.222702,150.600101 C243.018114,150.781799 242.899904,151.04154 242.897279,151.315152 L242.814671,152.621859 C242.774217,152.917512 242.86039,153.216511 243.051988,153.445285 C243.243587,153.674059 243.522821,153.811369 243.820986,153.823429 L243.820986,153.823429 Z" id="形状"></path>
                <polygon id="路径" points="251.54107 165.966791 239.375179 163.864044 239.795728 161.453395 251.961619 163.556142"></polygon>
                <path d="M245.165242,179.747291 L238.774394,177.877348 C236.992066,177.316616 236.348725,176.112543 236.844373,174.26513 L237.512746,171.974638 C238.113531,170.202323 239.240002,169.51893 240.90718,169.92446 L247.373126,171.809422 C249.145441,172.410207 249.803801,173.636809 249.348206,175.489229 L248.694852,177.742172 C248.049009,179.484448 246.877478,180.115272 245.165242,179.747291 Z M239.645532,175.654445 L245.488164,177.351662 C245.757463,177.43601 246.049877,177.402501 246.293114,177.25942 C246.536352,177.116339 246.707712,176.87704 246.764831,176.600681 L247.147832,175.286464 C247.235698,175.027541 247.210957,174.743636 247.079626,174.503815 C246.948295,174.263994 246.722413,174.090238 246.456929,174.024816 L240.561729,172.30507 C240.302805,172.217203 240.018901,172.241945 239.779079,172.373275 C239.539258,172.504606 239.365502,172.730488 239.300081,172.995972 L238.9321,174.25762 C238.826372,174.536994 238.843562,174.848029 238.979433,175.11405 C239.115305,175.380072 239.357215,175.57633 239.645532,175.654445 L239.645532,175.654445 Z" id="形状"></path>
                <polygon id="路径" points="244.474339 189.179612 233.089468 184.418393 234.035704 182.16545 245.420575 186.934179"></polygon>
                <path d="M235.177195,201.262895 L229.342073,198.003638 C227.729967,197.067415 227.369496,195.753198 228.260661,194.060988 L229.424681,191.980771 C230.425989,190.383685 231.677624,189.968142 233.179586,190.734142 L239.059767,194.015929 C240.651846,194.992204 241.019827,196.333957 240.163709,198.041187 L239.029727,200.076345 C238.048446,201.58832 236.764268,201.983837 235.177195,201.262895 Z M230.708858,196.006029 L236.025804,198.964894 C236.267807,199.107192 236.558799,199.140204 236.826529,199.055733 C237.094259,198.971262 237.313616,198.777231 237.430138,198.521815 L238.098511,197.320245 C238.243428,197.08956 238.283656,196.808218 238.209193,196.546165 C238.134729,196.284112 237.95257,196.065962 237.708001,195.94595 L232.345997,192.942026 C232.11262,192.799782 231.830303,192.761877 231.567671,192.837527 C231.305038,192.913176 231.086143,193.095452 230.964192,193.340046 L230.325858,194.481537 C230.156699,194.729756 230.101786,195.038475 230.174976,195.3298 C230.248167,195.621125 230.442469,195.867234 230.708858,196.006029 Z" id="形状"></path>
                <polygon id="路径" points="232.406075 210.274667 222.35795 203.102799 223.754775 201.112699 233.8029 208.292077"></polygon>
                <path d="M220.668243,219.962321 L215.696749,215.531533 C214.329964,214.247356 214.277395,212.88808 215.516514,211.438687 L217.116103,209.666372 C218.42281,208.329626 219.73953,208.201959 221.066263,209.283372 L226.075306,213.789258 C227.412052,215.095964 227.472131,216.485279 226.255541,217.957202 L224.701011,219.691968 C223.394304,220.938596 222.050048,221.043734 220.668243,219.962321 Z M217.469064,213.879375 L221.97495,217.949692 C222.18254,218.14946 222.465796,218.250674 222.752978,218.2277 C223.040159,218.204725 223.303721,218.059766 223.476912,217.829535 L224.385599,216.808201 C224.578575,216.614193 224.680502,216.347623 224.666195,216.074357 C224.651888,215.801092 224.522681,215.546623 224.310501,215.373827 L219.744537,211.273471 C219.550529,211.080495 219.283958,210.978568 219.010693,210.992875 C218.737427,211.007182 218.482958,211.136389 218.310163,211.348569 L217.431515,212.324845 C217.215333,212.528137 217.095894,212.813831 217.10306,213.110497 C217.110226,213.407163 217.243319,213.686758 217.469064,213.879375 L217.469064,213.879375 Z" id="形状"></path>
                <path d="M211.926825,228.020347 L207.481018,223.041343 C206.271938,221.614479 206.362056,220.255204 207.76639,218.956007 L209.546215,217.371437 C210.998112,216.184887 212.319838,216.204913 213.511395,217.431515 L218.01728,222.463088 C219.19632,223.912481 219.106203,225.301796 217.731908,226.631032 L215.997142,228.178053 C214.525219,229.297014 213.180963,229.244446 211.926825,228.020347 Z M209.426058,221.621989 L213.466336,226.165424 C213.652074,226.383213 213.921221,226.512339 214.207328,226.520922 C214.493435,226.529506 214.769838,226.416746 214.968298,226.210483 L215.989632,225.294286 C216.202849,225.122601 216.333478,224.868723 216.349217,224.595429 C216.364957,224.322135 216.264337,224.05494 216.07224,223.859912 L211.964374,219.286438 C211.794091,219.073603 211.541458,218.943066 211.269342,218.927311 C210.997227,218.911557 210.731217,219.012068 210.53751,219.20383 L209.553725,220.037419 C209.307774,220.217954 209.152376,220.496425 209.127874,220.800537 C209.103372,221.104649 209.212183,221.404407 209.426058,221.621989 L209.426058,221.621989 Z" id="形状"></path>
                <path d="M202.351818,235.057038 L198.491776,229.604916 C197.440402,228.057896 197.688226,226.71364 199.242757,225.579659 L201.187797,224.205363 C202.764857,223.191539 204.071564,223.356755 205.122937,224.708521 L209.020529,230.205701 C210.021836,231.777755 209.771509,233.147043 208.269548,234.313567 L206.369566,235.657823 C204.797512,236.614072 203.458263,236.41381 202.351818,235.057038 Z M200.571993,228.425876 L204.086584,233.38986 C204.245524,233.622171 204.495111,233.776632 204.773929,233.815238 C205.052748,233.853843 205.334913,233.773009 205.550997,233.592625 L206.669958,232.804095 C206.899368,232.65693 207.056172,232.419935 207.101906,232.151244 C207.147641,231.882553 207.078075,231.607027 206.910272,231.392251 L203.365642,226.375698 C203.217004,226.145859 202.978707,225.988974 202.708834,225.943281 C202.438961,225.897589 202.162302,225.967286 201.946288,226.135384 L200.879895,226.886365 C200.62352,227.038206 200.443613,227.291699 200.384902,227.583823 C200.32619,227.875948 200.394189,228.179265 200.571993,228.418367 L200.571993,228.425876 Z" id="形状"></path>
            </g>
        </g>
    </g>
</svg>