<?xml version="1.0" encoding="UTF-8"?>
<svg width="724px" height="371px" viewBox="0 0 724 371" version="1.1" xmlns="http://www.w3.org/2000/svg" xmlns:xlink="http://www.w3.org/1999/xlink">
    <defs>
        <rect id="path-1" x="5" y="0" width="716" height="371"></rect>
    </defs>
    <g id="页面-1" stroke="none" stroke-width="1" fill="none" fill-rule="evenodd">
        <g id="算法大赛-地图回放-播放" transform="translate(-319.000000, -220.000000)">
            <g id="点状底纹" transform="translate(320.000000, 220.000000)">
                <mask id="mask-2" fill="white">
                    <use xlink:href="#path-1"></use>
                </mask>
                <g id="蒙版"></g>
                <g id="编组-2" opacity="0.495675223" transform="translate(0.000000, 8.000000)" stroke="#464D79" stroke-linecap="round" stroke-linejoin="round" stroke-width="2">
                    <g id="编组" transform="translate(0.000000, 352.000000)">
                        <line x1="0.398015436" y1="0.5" x2="0.398015436" y2="0.5" id="Stroke-1"></line>
                        <line x1="13.0505281" y1="0.5" x2="721.601587" y2="0.5" id="Stroke-3" stroke-dasharray="0,15.895,0,0,0,0"></line>
                        <line x1="721.601985" y1="0.5" x2="721.601985" y2="0.5" id="Stroke-5"></line>
                    </g>
                    <g id="编组备份" transform="translate(0.000000, 336.000000)">
                        <line x1="0.398015436" y1="0.5" x2="0.398015436" y2="0.5" id="Stroke-1"></line>
                        <line x1="13.0505281" y1="0.5" x2="721.601587" y2="0.5" id="Stroke-3" stroke-dasharray="0,15.895,0,0,0,0"></line>
                        <line x1="721.601985" y1="0.5" x2="721.601985" y2="0.5" id="Stroke-5"></line>
                    </g>
                    <g id="编组备份-2" transform="translate(0.000000, 320.000000)">
                        <line x1="0.398015436" y1="0.5" x2="0.398015436" y2="0.5" id="Stroke-1"></line>
                        <line x1="13.0505281" y1="0.5" x2="721.601587" y2="0.5" id="Stroke-3" stroke-dasharray="0,15.895,0,0,0,0"></line>
                        <line x1="721.601985" y1="0.5" x2="721.601985" y2="0.5" id="Stroke-5"></line>
                    </g>
                    <g id="编组备份-3" transform="translate(0.000000, 304.000000)">
                        <line x1="0.398015436" y1="0.5" x2="0.398015436" y2="0.5" id="Stroke-1"></line>
                        <line x1="13.0505281" y1="0.5" x2="721.601587" y2="0.5" id="Stroke-3" stroke-dasharray="0,15.895,0,0,0,0"></line>
                        <line x1="721.601985" y1="0.5" x2="721.601985" y2="0.5" id="Stroke-5"></line>
                    </g>
                    <g id="编组备份-4" transform="translate(0.000000, 288.000000)">
                        <line x1="0.398015436" y1="0.5" x2="0.398015436" y2="0.5" id="Stroke-1"></line>
                        <line x1="13.0505281" y1="0.5" x2="721.601587" y2="0.5" id="Stroke-3" stroke-dasharray="0,15.895,0,0,0,0"></line>
                        <line x1="721.601985" y1="0.5" x2="721.601985" y2="0.5" id="Stroke-5"></line>
                    </g>
                    <g id="编组备份-5" transform="translate(0.000000, 272.000000)">
                        <line x1="0.398015436" y1="0.5" x2="0.398015436" y2="0.5" id="Stroke-1"></line>
                        <line x1="13.0505281" y1="0.5" x2="721.601587" y2="0.5" id="Stroke-3" stroke-dasharray="0,15.895,0,0,0,0"></line>
                        <line x1="721.601985" y1="0.5" x2="721.601985" y2="0.5" id="Stroke-5"></line>
                    </g>
                    <g id="编组备份-6" transform="translate(0.000000, 256.000000)">
                        <line x1="0.398015436" y1="0.5" x2="0.398015436" y2="0.5" id="Stroke-1"></line>
                        <line x1="13.0505281" y1="0.5" x2="721.601587" y2="0.5" id="Stroke-3" stroke-dasharray="0,15.895,0,0,0,0"></line>
                        <line x1="721.601985" y1="0.5" x2="721.601985" y2="0.5" id="Stroke-5"></line>
                    </g>
                    <g id="编组备份-7" transform="translate(0.000000, 240.000000)">
                        <line x1="0.398015436" y1="0.5" x2="0.398015436" y2="0.5" id="Stroke-1"></line>
                        <line x1="13.0505281" y1="0.5" x2="721.601587" y2="0.5" id="Stroke-3" stroke-dasharray="0,15.895,0,0,0,0"></line>
                        <line x1="721.601985" y1="0.5" x2="721.601985" y2="0.5" id="Stroke-5"></line>
                    </g>
                    <g id="编组备份-8" transform="translate(0.000000, 224.000000)">
                        <line x1="0.398015436" y1="0.5" x2="0.398015436" y2="0.5" id="Stroke-1"></line>
                        <line x1="13.0505281" y1="0.5" x2="721.601587" y2="0.5" id="Stroke-3" stroke-dasharray="0,15.895,0,0,0,0"></line>
                        <line x1="721.601985" y1="0.5" x2="721.601985" y2="0.5" id="Stroke-5"></line>
                    </g>
                    <g id="编组备份-9" transform="translate(0.000000, 208.000000)">
                        <line x1="0.398015436" y1="0.5" x2="0.398015436" y2="0.5" id="Stroke-1"></line>
                        <line x1="13.0505281" y1="0.5" x2="721.601587" y2="0.5" id="Stroke-3" stroke-dasharray="0,15.895,0,0,0,0"></line>
                        <line x1="721.601985" y1="0.5" x2="721.601985" y2="0.5" id="Stroke-5"></line>
                    </g>
                    <g id="编组备份-10" transform="translate(0.000000, 192.000000)">
                        <line x1="0.398015436" y1="0.5" x2="0.398015436" y2="0.5" id="Stroke-1"></line>
                        <line x1="13.0505281" y1="0.5" x2="721.601587" y2="0.5" id="Stroke-3" stroke-dasharray="0,15.895,0,0,0,0"></line>
                        <line x1="721.601985" y1="0.5" x2="721.601985" y2="0.5" id="Stroke-5"></line>
                    </g>
                    <g id="编组备份-11" transform="translate(0.000000, 176.000000)">
                        <line x1="0.398015436" y1="0.5" x2="0.398015436" y2="0.5" id="Stroke-1"></line>
                        <line x1="13.0505281" y1="0.5" x2="721.601587" y2="0.5" id="Stroke-3" stroke-dasharray="0,15.895,0,0,0,0"></line>
                        <line x1="721.601985" y1="0.5" x2="721.601985" y2="0.5" id="Stroke-5"></line>
                    </g>
                    <g id="编组备份-12" transform="translate(0.000000, 160.000000)">
                        <line x1="0.398015436" y1="0.5" x2="0.398015436" y2="0.5" id="Stroke-1"></line>
                        <line x1="13.0505281" y1="0.5" x2="721.601587" y2="0.5" id="Stroke-3" stroke-dasharray="0,15.895,0,0,0,0"></line>
                        <line x1="721.601985" y1="0.5" x2="721.601985" y2="0.5" id="Stroke-5"></line>
                    </g>
                    <g id="编组备份-13" transform="translate(0.000000, 144.000000)">
                        <line x1="0.398015436" y1="0.5" x2="0.398015436" y2="0.5" id="Stroke-1"></line>
                        <line x1="13.0505281" y1="0.5" x2="721.601587" y2="0.5" id="Stroke-3" stroke-dasharray="0,15.895,0,0,0,0"></line>
                        <line x1="721.601985" y1="0.5" x2="721.601985" y2="0.5" id="Stroke-5"></line>
                    </g>
                    <g id="编组备份-14" transform="translate(0.000000, 128.000000)">
                        <line x1="0.398015436" y1="0.5" x2="0.398015436" y2="0.5" id="Stroke-1"></line>
                        <line x1="13.0505281" y1="0.5" x2="721.601587" y2="0.5" id="Stroke-3" stroke-dasharray="0,15.895,0,0,0,0"></line>
                        <line x1="721.601985" y1="0.5" x2="721.601985" y2="0.5" id="Stroke-5"></line>
                    </g>
                    <g id="编组备份-15" transform="translate(0.000000, 112.000000)">
                        <line x1="0.398015436" y1="0.5" x2="0.398015436" y2="0.5" id="Stroke-1"></line>
                        <line x1="13.0505281" y1="0.5" x2="721.601587" y2="0.5" id="Stroke-3" stroke-dasharray="0,15.895,0,0,0,0"></line>
                        <line x1="721.601985" y1="0.5" x2="721.601985" y2="0.5" id="Stroke-5"></line>
                    </g>
                    <g id="编组备份-16" transform="translate(0.000000, 96.000000)">
                        <line x1="0.398015436" y1="0.5" x2="0.398015436" y2="0.5" id="Stroke-1"></line>
                        <line x1="13.0505281" y1="0.5" x2="721.601587" y2="0.5" id="Stroke-3" stroke-dasharray="0,15.895,0,0,0,0"></line>
                        <line x1="721.601985" y1="0.5" x2="721.601985" y2="0.5" id="Stroke-5"></line>
                    </g>
                    <g id="编组备份-17" transform="translate(0.000000, 80.000000)">
                        <line x1="0.398015436" y1="0.5" x2="0.398015436" y2="0.5" id="Stroke-1"></line>
                        <line x1="13.0505281" y1="0.5" x2="721.601587" y2="0.5" id="Stroke-3" stroke-dasharray="0,15.895,0,0,0,0"></line>
                        <line x1="721.601985" y1="0.5" x2="721.601985" y2="0.5" id="Stroke-5"></line>
                    </g>
                    <g id="编组备份-18" transform="translate(0.000000, 64.000000)">
                        <line x1="0.398015436" y1="0.5" x2="0.398015436" y2="0.5" id="Stroke-1"></line>
                        <line x1="13.0505281" y1="0.5" x2="721.601587" y2="0.5" id="Stroke-3" stroke-dasharray="0,15.895,0,0,0,0"></line>
                        <line x1="721.601985" y1="0.5" x2="721.601985" y2="0.5" id="Stroke-5"></line>
                    </g>
                    <g id="编组备份-19" transform="translate(0.000000, 48.000000)">
                        <line x1="0.398015436" y1="0.5" x2="0.398015436" y2="0.5" id="Stroke-1"></line>
                        <line x1="13.0505281" y1="0.5" x2="721.601587" y2="0.5" id="Stroke-3" stroke-dasharray="0,15.895,0,0,0,0"></line>
                        <line x1="721.601985" y1="0.5" x2="721.601985" y2="0.5" id="Stroke-5"></line>
                    </g>
                    <g id="编组备份-20" transform="translate(0.000000, 32.000000)">
                        <line x1="0.398015436" y1="0.5" x2="0.398015436" y2="0.5" id="Stroke-1"></line>
                        <line x1="13.0505281" y1="0.5" x2="721.601587" y2="0.5" id="Stroke-3" stroke-dasharray="0,15.895,0,0,0,0"></line>
                        <line x1="721.601985" y1="0.5" x2="721.601985" y2="0.5" id="Stroke-5"></line>
                    </g>
                    <g id="编组备份-21" transform="translate(0.000000, 16.000000)">
                        <line x1="0.398015436" y1="0.5" x2="0.398015436" y2="0.5" id="Stroke-1"></line>
                        <line x1="13.0505281" y1="0.5" x2="721.601587" y2="0.5" id="Stroke-3" stroke-dasharray="0,15.895,0,0,0,0"></line>
                        <line x1="721.601985" y1="0.5" x2="721.601985" y2="0.5" id="Stroke-5"></line>
                    </g>
                    <g id="编组备份-22">
                        <line x1="0.398015436" y1="0.5" x2="0.398015436" y2="0.5" id="Stroke-1"></line>
                        <line x1="13.0505281" y1="0.5" x2="721.601587" y2="0.5" id="Stroke-3" stroke-dasharray="0,15.895,0,0,0,0"></line>
                        <line x1="721.601985" y1="0.5" x2="721.601985" y2="0.5" id="Stroke-5"></line>
                    </g>
                </g>
            </g>
        </g>
    </g>
</svg>