<svg width="222px" height="249px" viewBox="0 0 222 249" version="1.1" xmlns="http://www.w3.org/2000/svg" xmlns:xlink="http://www.w3.org/1999/xlink">
    <defs>
        <rect id="path-1" x="0" y="0" width="222" height="249"></rect>
    </defs>
    <g id="页面-1" stroke="none" stroke-width="1" fill="none" fill-rule="evenodd">
        <g id="算法大赛-排行榜" transform="translate(-1144.000000, -240.000000)">
            <g id="底纹备份" transform="translate(1144.000000, 240.000000)">
                <mask id="mask-2" fill="white">
                    <use xlink:href="#path-1"></use>
                </mask>
                <g id="蒙版" transform="translate(111.000000, 124.500000) scale(1, -1) translate(-111.000000, -124.500000) "></g>
                <g id="编组" mask="url(#mask-2)" fill-opacity="0.720061189">
                    <g transform="translate(0.000000, -239.000000)" id="底纹备份">
                        <polygon id="路径" fill="#3570FF" fill-rule="nonzero" points="357.082413 359.886184 340.206877 343.10059 343.48156 339.750019 360.357096 356.546527"></polygon>
                        <path d="M331.780024,374.630876 L323.724303,364.579165 C321.54118,361.71972 321.854095,359.107658 324.663045,356.742977 L328.254282,353.872619 C331.165112,351.733493 333.712088,351.904477 335.89521,354.385573 L344.016425,364.524595 C346.155885,367.434971 345.835694,370.097965 343.055852,372.513577 L339.55194,375.318452 C336.626556,377.34844 334.035918,377.119247 331.780024,374.630876 Z M327.599345,362.058052 L334.934636,371.214822 C335.267267,371.64176 335.763762,371.90961 336.303277,371.95318 C336.842792,371.996749 337.375846,371.812042 337.772695,371.444014 L339.835746,369.796014 C340.26335,369.48754 340.540515,369.012628 340.598744,368.488648 C340.656973,367.964669 340.490833,367.440509 340.141383,367.045708 L332.729683,357.801627 C332.423255,357.374673 331.950117,357.09767 331.427767,357.039409 C330.905418,356.981148 330.382859,357.147095 329.989864,357.496037 L327.95956,359.06764 C327.47959,359.387919 327.159586,359.898199 327.080317,360.469685 C327.001047,361.041171 327.170085,361.619263 327.544767,362.058052 L327.599345,362.058052 Z" id="形状" fill="#3570FF" fill-rule="nonzero"></path>
                        <polygon id="路径" fill="#3570FF" fill-rule="nonzero" points="320.165813 388.786217 307.460041 368.650053 311.444239 366.139854 324.139096 386.265104"></polygon>
                        <polygon id="路径" fill="#3570FF" fill-rule="nonzero" points="299.578969 399.907492 289.209138 378.483486 293.455311 376.420757 303.825142 397.855677"></polygon>
                        <polygon id="路径" fill="#3570FF" fill-rule="nonzero" points="277.91148 408.660447 269.97583 386.221448 274.418484 384.649845 282.354134 407.088844"></polygon>
                        <path d="M248.690386,411.017852 L245.754087,398.477769 C245.026379,394.941663 246.434493,392.718863 249.978429,391.80937 L254.464745,390.717979 C258.001403,390.052231 260.228188,391.296417 261.123268,394.472364 L264.092315,407.1325 C264.758167,410.668607 263.328222,412.9387 259.72607,413.920952 L255.359825,414.94686 C251.910492,415.528935 249.687346,414.219266 248.690386,411.017852 Z M250.338644,397.86659 L253.012969,409.271626 C253.126271,409.800533 253.457357,410.257164 253.924876,410.529321 C254.392395,410.801479 254.953013,410.863937 255.468981,410.701349 L258.045066,410.101084 C258.563316,410.007193 259.017773,409.698758 259.296356,409.251846 C259.57494,408.804935 259.651719,408.261146 259.507758,407.754593 L256.800686,396.21859 C256.706781,395.700421 256.398298,395.246035 255.951316,394.967495 C255.504335,394.688954 254.960462,394.612187 254.45383,394.756126 L251.986901,395.334563 C251.415674,395.420041 250.908394,395.74599 250.593321,396.230001 C250.278249,396.714011 250.185543,397.309748 250.338644,397.86659 L250.338644,397.86659 Z" id="形状" fill="#3570FF" fill-rule="nonzero"></path>
                        <polygon id="路径" fill="#3570FF" fill-rule="nonzero" points="232.240559 418.810384 229.424331 395.170855 234.107129 394.614245 236.923357 418.253774"></polygon>
                        <path d="M203.172285,414.630356 L203.095875,401.751942 C203.095875,398.139438 205.017023,396.294987 208.695584,396.196762 L213.301973,396.196762 C216.904125,396.338643 218.759779,398.041213 218.967175,401.337214 L219.043584,414.335681 C218.912597,417.973651 217.006004,419.861757 213.323804,420 L208.837487,420 C205.308106,419.788998 203.419705,417.999116 203.172285,414.630356 Z M207.702264,402.177585 L207.767757,413.910038 C207.768855,414.447256 207.994909,414.959465 208.39107,415.322382 C208.787231,415.6853 209.317292,415.865759 209.852639,415.819972 L212.494217,415.819972 C213.020927,415.839095 213.53142,415.635982 213.900978,415.260254 C214.270536,414.884526 214.465122,414.370789 214.437196,413.844555 L214.371703,402.002962 C214.390603,401.478329 214.188918,400.969753 213.815579,400.60062 C213.442241,400.231487 212.931364,400.035529 212.406892,400.060286 L209.87447,400.060286 C209.295433,400.01557 208.72517,400.222276 208.309318,400.627616 C207.893466,401.032957 207.672286,401.597687 207.702264,402.177585 Z" id="形状" fill="#3570FF" fill-rule="nonzero"></path>
                        <polygon id="路径" fill="#3570FF" fill-rule="nonzero" points="185.358006 418.54845 187.890428 394.876179 192.584141 395.378219 190.040804 419.094145"></polygon>
                        <polygon id="路径" fill="#3570FF" fill-rule="nonzero" points="162.293318 414.499389 167.467318 391.263675 172.062791 392.278669 166.954284 415.514383"></polygon>
                        <path d="M136.303246,400.977055 L140.47301,388.786217 C141.71739,385.402905 144.093354,384.271497 147.600904,385.391991 L151.967149,386.887197 C155.321881,388.196866 156.537152,390.437856 155.612964,393.610166 L151.399537,405.899228 C150.089664,409.260713 147.666398,410.417587 144.12974,409.369852 L139.894482,407.918302 C136.627076,406.557701 135.429997,404.243952 136.303246,400.977055 Z M144.67552,390.717979 L140.876887,401.817426 C140.6939,402.327917 140.733944,402.891801 140.987236,403.37132 C141.240527,403.850839 141.683739,404.201828 142.208592,404.338539 L144.708267,405.189824 C145.196336,405.38279 145.743105,405.361393 146.214596,405.130876 C146.686087,404.900359 147.038729,404.482024 147.186111,403.97838 L151.028407,392.769794 C151.224974,392.282028 151.205289,391.733773 150.974247,391.261355 C150.743205,390.788937 150.322511,390.436739 149.816774,390.292337 L147.415339,389.46288 C146.887803,389.235704 146.288712,389.242573 145.766525,389.481785 C145.244339,389.720997 144.847925,390.170164 144.67552,390.717979 Z" id="形状" fill="#3570FF" fill-rule="nonzero"></path>
                        <path d="M115.388934,391.525609 L120.84674,379.880467 C122.46225,376.657225 124.947371,375.798664 128.302103,377.304784 L132.460951,379.269288 C135.659225,380.95003 136.608883,383.307434 135.342672,386.352415 L129.841204,398.106696 C128.1602,401.293558 125.613223,402.170309 122.200275,400.736949 L118.139668,398.827015 C115.076019,397.102617 114.159108,394.668815 115.388934,391.525609 Z M124.863685,382.259699 L119.842503,392.86802 C119.606633,393.361151 119.590757,393.931111 119.798811,394.436603 C120.006865,394.942096 120.41937,395.335795 120.934065,395.5201 L123.324584,396.611491 C123.791148,396.857475 124.339681,396.895887 124.835984,396.717329 C125.332287,396.538771 125.730578,396.159714 125.933415,395.672895 L130.998259,384.966349 C131.244616,384.502872 131.28439,383.957097 131.107831,383.462809 C130.931272,382.968521 130.554703,382.571417 130.070432,382.368838 L127.778153,381.277447 C127.269763,380.97672 126.65559,380.912277 126.095835,381.100929 C125.536081,381.289581 125.086252,381.71262 124.863685,382.259699 L124.863685,382.259699 Z" id="形状" fill="#3570FF" fill-rule="nonzero"></path>
                        <path d="M95.6862541,379.804069 L102.453934,368.890159 C104.411467,365.863368 106.958443,365.284931 110.094862,367.154848 L114.002651,369.577736 C116.993529,371.593171 117.684851,374.045163 116.076617,376.933711 L109.25436,387.989502 C107.224056,390.979913 104.615225,391.569264 101.395119,389.768469 L97.5855706,387.411065 C94.7402344,385.337422 94.1071289,382.801757 95.6862541,379.804069 Z M106.121579,371.662292 L99.9542584,381.637606 C99.663955,382.094926 99.5790181,382.653099 99.720154,383.176051 C99.86129,383.699002 100.215531,384.138685 100.69652,384.387912 L102.945136,385.784892 C103.379804,386.080453 103.918969,386.179061 104.430134,386.056484 C104.9413,385.933906 105.377077,385.601507 105.630377,385.140971 L111.863191,375.067432 C112.15917,374.631097 112.257986,374.090427 112.135477,373.577629 C112.012968,373.064832 111.680427,372.627182 111.21917,372.371697 L109.101541,371.072941 C108.637848,370.722562 108.046202,370.587679 107.476432,370.70245 C106.906661,370.817221 106.413406,371.17064 106.121579,371.673206 L106.121579,371.662292 Z" id="形状" fill="#3570FF" fill-rule="nonzero"></path>
                        <polygon id="路径" fill="#3570FF" fill-rule="nonzero" points="78.5378278 373.735935 93.2084102 354.996752 96.9306339 357.899852 82.2273046 376.639035"></polygon>
                        <path d="M60.8545365,350.336512 L69.8817475,341.147 C72.457832,338.636801 75.0884944,338.636801 77.773735,341.147 L81.0484185,344.366603 C83.5153468,347.00777 83.6499727,349.554349 81.4522962,352.00634 L72.3486758,361.250422 C69.7070977,363.716966 67.0218572,363.716966 64.2929542,361.250422 L61.0728487,358.107216 C58.7296307,355.46605 58.6568599,352.875815 60.8545365,350.336512 Z M72.8617096,344.704935 L64.6422538,353.075904 C64.2569968,353.454975 64.0492767,353.978778 64.0700506,354.518815 C64.0908245,355.058852 64.3381703,355.565156 64.7514099,355.91352 L66.6398108,357.768885 C66.9935547,358.15774 67.4949072,358.379412 68.0206357,358.379412 C68.5463642,358.379412 69.0477167,358.15774 69.4014606,357.768885 L77.6864101,349.245121 C78.078448,348.893215 78.302397,348.391279 78.302397,347.864512 C78.302397,347.337744 78.078448,346.835808 77.6864101,346.483902 L75.8853341,344.715849 C75.5097717,344.268657 74.9589644,344.005937 74.3750291,343.995473 C73.7910939,343.98501 73.2312253,344.227829 72.8398784,344.661279 L72.8617096,344.704935 Z" id="形状" fill="#3570FF" fill-rule="nonzero"></path>
                        <polygon id="路径" fill="#3570FF" fill-rule="nonzero" points="45.4635237 340.513993 63.9436547 325.496453 66.9127011 329.152613 48.4434857 344.213809"></polygon>
                        <path d="M33.4672662,313.753086 L44.3064688,306.811839 C47.3846714,304.920095 49.9316475,305.509446 51.9473971,308.579892 L54.5234816,312.443417 C56.3354731,315.564795 55.8952101,318.078632 53.2026925,319.984928 L42.2870806,326.991659 C39.1724927,328.803368 36.5600229,328.203103 34.4496712,325.190863 L32.0264054,321.414651 C30.236245,318.326014 30.7492788,315.761245 33.4672662,313.753086 Z M46.4022663,310.926383 L36.5236375,317.256451 C36.0611409,317.538632 35.7393177,318.002956 35.6374616,318.535018 C35.5356056,319.067081 35.6631875,319.617411 35.9887725,320.050412 L37.4187177,322.233194 C37.6835277,322.688664 38.1275768,323.011911 38.6424309,323.123999 C39.1572851,323.236087 39.6955517,323.126698 40.1257894,322.822545 L50.1572368,316.503391 C50.6121357,316.240821 50.9353334,315.798766 51.0475178,315.285706 C51.1597022,314.772646 51.0504894,314.236071 50.7466798,313.807655 L49.3822283,311.679443 C49.1177847,311.151899 48.63684,310.765515 48.0646468,310.620917 C47.4924536,310.476319 46.8856501,310.587821 46.4022663,310.926383 L46.4022663,310.926383 Z" id="形状" fill="#3570FF" fill-rule="nonzero"></path>
                        <path d="M22.9991943,293.376816 L34.5588274,287.690669 C37.8262339,286.169997 40.3077163,287.04311 42.0032747,290.310007 L44.0226629,294.435465 C45.4780778,297.746018 44.7503704,300.194372 41.8395405,301.780526 L30.181667,307.521243 C26.870598,308.976431 24.3236219,308.085128 22.5407386,304.847335 L20.6850846,300.820102 C19.3024404,297.560481 20.0738103,295.079386 22.9991943,293.376816 Z M36.1743379,292.023491 L25.651688,297.196684 C25.1577459,297.425725 24.7842049,297.853568 24.6239357,298.373842 C24.4636665,298.894115 24.5317234,299.457949 24.8111859,299.925162 L25.9682408,302.315308 C26.1792887,302.797458 26.5830797,303.168879 27.0811937,303.339041 C27.5793077,303.509204 28.1259884,303.462476 28.5879876,303.210249 L39.2416249,297.949744 C39.7238495,297.738729 40.0953286,297.335001 40.2655175,296.836965 C40.4357065,296.338928 40.388972,295.792333 40.136705,295.330406 L39.0451439,293.060312 C38.83185,292.516183 38.3943533,292.090365 37.8445995,291.891816 C37.2948456,291.693266 36.6861768,291.741251 36.1743379,292.023491 Z" id="形状" fill="#3570FF" fill-rule="nonzero"></path>
                        <polygon id="路径" fill="#3570FF" fill-rule="nonzero" points="11.6797048 279.06868 34.0785404 271.0033 35.6831354 275.434348 13.2842997 283.510641"></polygon>
                        <polygon id="路径" fill="#3570FF" fill-rule="nonzero" points="5.22857811 256.618767 28.3260129 251.019931 29.4175741 255.603773 6.26556124 261.169867"></polygon>
                        <polygon id="路径" fill="#3570FF" fill-rule="nonzero" points="1.28804221 233.557675 24.9094264 230.600005 25.4988695 235.271159 1.87748525 238.272484"></polygon>
                        <path d="M5.28315617,204.526674 L18.1635782,204.362965 C21.7657302,204.362965 23.6286613,206.21833 23.7523715,209.92906 L23.8069496,214.53473 C23.6977935,218.1727 21.994958,220.07172 18.6984432,220.231791 L5.70886504,220.384585 C2.1067131,220.275446 0.251059074,218.38734 -9.69501095e-15,214.709352 L-9.69501095e-15,210.223735 C0.152818567,206.694904 1.91387062,204.795884 5.28315617,204.526674 Z M17.7597006,208.968636 L6.02541778,209.110516 C5.48440231,209.111879 4.96845377,209.338717 4.60175079,209.736435 C4.23504782,210.134152 4.05080084,210.66673 4.09335447,211.205987 L4.09335447,213.858067 C4.07686079,214.383963 4.28315716,214.892388 4.66144586,215.258148 C5.03973455,215.623909 5.55486596,215.81302 6.07999584,215.778915 L17.9234348,215.637035 C18.4482799,215.653028 18.9558404,215.448536 19.3229628,215.073176 C19.6900852,214.697815 19.8832174,214.185892 19.8554981,213.661617 L19.8554981,211.12959 C19.8963513,210.556427 19.6910174,209.993011 19.290938,209.580494 C18.8908587,209.167976 18.3339384,208.94544 17.7597006,208.968636 L17.7597006,208.968636 Z" id="形状" fill="#3570FF" fill-rule="nonzero"></path>
                        <polygon id="路径" fill="#3570FF" fill-rule="nonzero" points="1.24437976 186.726087 24.9312576 189.105319 24.4618863 193.798301 0.775008447 191.408154"></polygon>
                        <path d="M11.6142111,159.277603 L24.2108272,161.995167 C27.7147387,162.835538 29.1228526,165.051062 28.4133378,168.663566 L27.452764,173.160097 C26.5358526,176.652548 24.4618863,178.125926 21.1981184,177.58023 L8.49234608,174.840839 C5.01026587,173.934984 3.5694051,171.664891 4.20251059,168.030559 L5.14125322,163.664995 C6.11638121,160.259855 8.27403384,158.797391 11.6142111,159.277603 Z M22.7917977,166.393472 L11.3194896,163.926929 C10.7928958,163.801857 10.2379652,163.904683 9.79116787,164.21012 C9.3443705,164.515557 9.0471621,164.995266 8.972633,165.531274 L8.41593679,168.074215 C8.27944972,168.582583 8.36401901,169.124942 8.64880519,169.567643 C8.93359138,170.010343 9.39211082,170.312217 9.91137563,170.398877 L21.4928399,172.898163 C22.0029015,173.034542 22.5468701,172.948559 22.9899829,172.661517 C23.4330956,172.374475 23.7338965,171.913227 23.8178652,171.392043 L24.3527302,168.9255 C24.5031421,168.381624 24.4203494,167.799692 24.1242162,167.319327 C23.8280831,166.838962 23.3453352,166.503516 22.7917977,166.393472 L22.7917977,166.393472 Z" id="形状" fill="#3570FF" fill-rule="nonzero"></path>
                        <polygon id="路径" fill="#3570FF" fill-rule="nonzero" points="11.6360423 141.040459 34.1986122 148.680196 32.6922577 153.089416 10.1296879 145.515163"></polygon>
                        <path d="M27.8020636,116.615129 L39.4926839,122.072084 C42.7237051,123.650963 43.6005926,126.12842 42.1233464,129.504457 L40.1803675,133.67357 C38.5211945,136.88226 36.1634223,137.857236 33.107051,136.598498 L21.3291057,131.141543 C18.1199158,129.489905 17.2211971,126.943326 18.6329496,123.501806 L20.532266,119.430918 C22.2278244,116.338643 24.6510903,115.400047 27.8020636,116.615129 Z M37.1349118,126.022919 L26.4921901,121.078918 C26.0005504,120.843276 25.4319271,120.827592 24.9280422,121.035777 C24.4241574,121.243961 24.0324733,121.656404 23.8506121,122.170309 L22.7590509,124.571369 C22.5173688,125.038227 22.482549,125.585018 22.6630601,126.078753 C22.8435712,126.572488 23.2228716,126.967922 23.7087091,127.16888 L34.4496712,132.167451 C34.916602,132.409095 35.4634782,132.443909 35.9572901,132.263426 C36.4511021,132.082943 36.8465981,131.703702 37.0475869,131.21794 L38.1391481,128.915105 C38.4346896,128.406494 38.4937021,127.794308 38.300755,127.238623 C38.1078078,126.682938 37.6820872,126.23901 37.1349118,126.022919 L37.1349118,126.022919 Z" id="形状" fill="#3570FF" fill-rule="nonzero"></path>
                        <polygon id="路径" fill="#3570FF" fill-rule="nonzero" points="31.8299244 98.8581971 52.1657094 111.223657 49.7206123 115.25089 29.4175741 102.88543"></polygon>
                        <path d="M53.0171271,78.5801523 L63.2559711,86.4163397 C66.072199,88.686433 66.3814746,91.2984954 64.1837981,94.2525271 L61.3239078,97.897773 C59.002521,100.648078 56.4919302,101.077359 53.7921356,99.1856144 L43.4987135,91.2512018 C40.7479793,88.930177 40.4350651,86.2635449 42.5599709,83.2513058 L45.2997895,79.6715433 C47.6357304,77.037653 50.2081763,76.673856 53.0171271,78.5801523 Z M60.0358656,89.8105657 L50.7575954,82.6401268 C50.3392653,82.310184 49.8032276,82.1676184 49.2762278,82.2461394 C48.7492279,82.3246605 48.278054,82.617297 47.9741144,83.0548554 L46.325857,85.1284983 C45.9879449,85.5298777 45.8334495,86.0543305 45.8998101,86.5747649 C45.9661706,87.0951994 46.2473309,87.5641191 46.6751566,87.8678897 L56.0516672,95.1038121 C56.4536191,95.4453853 56.9807474,95.6021286 57.5040618,95.5356863 C58.0273763,95.4692441 58.4985922,95.1857467 58.8024014,94.754567 L60.3415027,92.7682353 C60.7307157,92.3453448 60.9200673,91.7759907 60.8616344,91.2042717 C60.8032014,90.6325528 60.5025839,90.1132607 60.0358656,89.777824 L60.0358656,89.8105657 Z" id="形状" fill="#3570FF" fill-rule="nonzero"></path>
                        <polygon id="路径" fill="#3570FF" fill-rule="nonzero" points="60.8872833 62.1001481 77.9920472 78.6565496 74.7173636 82.0507757 57.6016841 65.4834602"></polygon>
                        <path d="M86.0586844,47.0062105 L94.2453934,56.9487826 C96.4721782,59.7791232 96.1920108,62.3948237 93.4048912,64.7958839 L89.8573174,67.7208118 C86.9464875,69.9035938 84.3995114,69.7653509 82.216389,67.3060832 L73.9532708,57.2761999 C71.7701484,54.3949276 72.0648699,51.7319336 74.8046885,49.2653899 L78.2649375,46.4168594 C81.1321049,44.3577684 83.7300205,44.5542187 86.0586844,47.0062105 Z M90.4249292,59.5135514 L82.9040726,50.46592 C82.5665619,50.0436348 82.0675294,49.7820601 81.5281783,49.7447263 C80.9888273,49.7073924 80.4585047,49.8977152 80.0660135,50.2694696 L78.0575409,51.9502118 C77.6392177,52.2674411 77.3728591,52.7453129 77.3230812,53.2678998 C77.2733032,53.7904868 77.4446543,54.3100387 77.7955662,54.7005171 L85.3273384,63.8463737 C85.6409238,64.2691074 86.1184563,64.5397997 86.6422833,64.5917586 C87.1661103,64.6437174 87.6875284,64.4721119 88.0780726,64.1192215 L90.0319671,62.5039628 C90.5024636,62.1744881 90.8113565,61.6611636 90.882092,61.0912078 C90.9528275,60.5212521 90.778785,59.9480106 90.403098,59.5135514 L90.4249292,59.5135514 Z" id="形状" fill="#3570FF" fill-rule="nonzero"></path>
                        <polygon id="路径" fill="#3570FF" fill-rule="nonzero" points="97.3672584 32.7417301 110.345921 52.7032716 106.394469 55.2680404 93.4048912 35.306499"></polygon>
                        <polygon id="路径" fill="#3570FF" fill-rule="nonzero" points="117.834031 21.3148663 128.487668 42.5642491 124.274242 44.7470312 113.609689 23.4539927"></polygon>
                        <polygon id="路径" fill="#3570FF" fill-rule="nonzero" points="139.348702 12.2781488 147.600904 34.6080087 143.169166 36.2341813 134.927879 13.9043214"></polygon>
                        <polygon id="路径" fill="#3570FF" fill-rule="nonzero" points="161.769369 5.64249149 167.510981 28.747239 162.937339 29.83863 157.184812 6.77753813"></polygon>
                        <polygon id="路径" fill="#3570FF" fill-rule="nonzero" points="184.790394 1.52794741 187.93409 25.1019931 183.262209 25.724086 180.118512 2.18278201"></polygon>
                        <path d="M213.891416,5.29324637 L214.15339,18.1716602 C214.15339,21.7732505 212.308652,23.6286152 208.630091,23.8032378 L204.023702,23.8905491 C200.421551,23.8141517 198.565897,22.1224956 198.293006,18.8374087 L198.031032,5.83894187 C198.103802,2.23735156 199.981288,0.320141361 203.663487,0.0873112803 L208.138888,0 C211.708293,0.163708651 213.585779,1.92084817 213.891416,5.29324637 Z M209.525171,17.8005873 L209.285027,6.07904789 C209.284184,5.53686974 209.055499,5.02000268 208.65482,4.65467428 C208.254142,4.28934588 207.718358,4.10918856 207.178314,4.15819972 L204.525821,4.15819972 C203.999682,4.14458042 203.492244,4.35368366 203.128491,4.73400652 C202.764737,5.11432938 202.578478,5.6305224 202.615589,6.15544526 L202.855732,17.9970377 C202.83895,18.5220748 203.045553,19.0296172 203.424269,19.3937108 C203.802986,19.7578044 204.318316,19.9443203 204.842373,19.9069719 L207.374795,19.9069719 C207.947288,19.9413306 208.507609,19.7319944 208.917288,19.3306956 C209.326968,18.9293968 209.547786,18.3735747 209.525171,17.8005873 L209.525171,17.8005873 Z" id="形状" fill="#3570FF" fill-rule="nonzero"></path>
                        <polygon id="路径" fill="#3570FF" fill-rule="nonzero" points="231.672947 1.091391 229.489825 24.7964036 224.796112 24.3598472 226.99015 0.676662422"></polygon>
                        <path d="M259.169374,11.2740691 L256.549627,23.8905491 C255.741872,27.4048281 253.536918,28.8236364 249.912935,28.146974 L245.404787,27.2083777 C241.911791,26.324351 240.416353,24.261622 240.940302,20.9983629 L243.58188,8.27274381 C244.469683,4.7802926 246.729215,3.32510459 250.360475,3.90717979 L254.72672,4.81303433 C258.154222,5.78437232 259.62783,7.92349869 259.169374,11.2740691 Z M252.096057,22.5044825 L254.486576,11.0121352 C254.591172,10.4968146 254.479908,9.9611512 254.178735,9.53008786 C253.877563,9.09902452 253.412816,8.81025268 252.892897,8.73112803 L250.305897,8.18543253 C249.795956,8.05623169 249.255194,8.14686355 248.815265,8.43526269 C248.375335,8.72366183 248.076599,9.18337015 247.991787,9.70246602 L245.54669,21.2602968 C245.417469,21.770158 245.508115,22.3108363 245.796559,22.7506969 C246.085003,23.1905574 246.544783,23.4892469 247.06396,23.5740457 L249.541804,24.0869995 C250.092016,24.2477562 250.684632,24.1671413 251.17189,23.8652552 C251.659148,23.5633692 251.995128,23.0686611 252.096057,22.5044825 L252.096057,22.5044825 Z" id="形状" fill="#3570FF" fill-rule="nonzero"></path>
                        <polygon id="路径" fill="#3570FF" fill-rule="nonzero" points="277.420277 11.1540161 270.008577 33.8331211 265.533176 32.3597433 272.933961 9.73520775"></polygon>
                        <path d="M301.980404,27.1428943 L296.631754,38.8644336 C295.067183,42.102227 292.596616,42.9971676 289.220054,41.5492555 L285.028459,39.6393213 C281.819269,38.0022348 280.825948,35.6521061 282.048497,32.5889354 L287.440809,20.7364291 C289.067235,17.4622561 291.599657,16.6109711 295.005328,17.9861237 L299.087767,19.8524024 C302.195078,21.5476964 303.15929,23.9778604 301.980404,27.1428943 Z M292.63664,36.5288569 L297.505003,25.8550529 C297.736911,25.3645993 297.750579,24.7989655 297.54263,24.2978866 C297.334681,23.7968076 296.924508,23.4070139 296.413442,23.2248006 L294.001092,22.1334096 C293.532419,21.8966683 292.986007,21.8669808 292.494436,22.0515503 C292.002865,22.2361198 291.611062,22.6180781 291.414092,23.1047476 L286.523897,33.8331211 C286.280079,34.3005983 286.246687,34.8497135 286.432064,35.343282 C286.617442,35.8368505 287.00408,36.2282573 287.495387,36.4197178 L289.798581,37.5111088 C290.299825,37.7882983 290.895222,37.8396112 291.436513,37.6522704 C291.977805,37.4649296 292.414057,37.0565629 292.63664,36.5288569 Z" id="形状" fill="#3570FF" fill-rule="nonzero"></path>
                        <polygon id="路径" fill="#3570FF" fill-rule="nonzero" points="319.772851 31.0391601 307.591028 51.4699997 303.541336 49.1125952 315.755906 28.6817556"></polygon>
                        <path d="M340.239624,52.0593509 L332.445877,62.3075124 C330.197261,65.1305771 327.588429,65.4579944 324.619383,63.2897643 L320.951737,60.5067173 C318.179172,58.2075202 317.727993,55.6973209 319.598202,52.9761193 L327.457442,42.6297326 C329.756998,39.8575995 332.420407,39.5229062 335.44767,41.6256529 L339.017075,44.3432165 C341.687762,46.6569654 342.095278,49.2290102 340.239624,52.0593509 Z M329.062037,59.1533924 L336.157185,49.8219993 C336.492948,49.3949679 336.633379,48.846328 336.544065,48.3105268 C336.454751,47.7747257 336.143945,47.3012801 335.687813,47.0062105 L333.592016,45.4127797 C333.189066,45.0738764 332.661695,44.920905 332.139906,44.9915747 C331.618116,45.0622443 331.150452,45.3499802 330.852197,45.7838526 L323.68064,55.2134709 C323.341684,55.616358 323.188689,56.1436466 323.25937,56.6653547 C323.33005,57.1870627 323.617831,57.6546539 324.051771,57.9528623 L326.060244,59.4808097 C326.489473,59.8647406 327.061586,60.0483432 327.634111,59.9858956 C328.206637,59.923448 328.725699,59.6208267 329.062037,59.1533924 L329.062037,59.1533924 Z" id="形状" fill="#3570FF" fill-rule="nonzero"></path>
                        <polygon id="路径" fill="#3570FF" fill-rule="nonzero" points="356.744029 59.7863992 340.316033 77.0085492 336.899446 73.7343762 353.327442 56.5013123"></polygon>
                        <path d="M372.025886,84.8229088 L362.147257,93.0847387 C359.331029,95.3402801 356.714921,95.0819843 354.298932,92.3098511 L351.340801,88.7846582 C349.157679,85.9179378 349.274112,83.3713588 351.690101,81.1449211 L361.66697,72.8066939 C364.52686,70.6239119 367.193908,70.8894837 369.668113,73.6034093 L372.549835,77.041291 C374.638355,79.8861835 374.463706,82.4800561 372.025886,84.8229088 Z M359.549341,89.2648702 L368.543805,81.7342723 C368.966043,81.3955132 369.225732,80.8943555 369.258984,80.3540951 C369.292236,79.8138348 369.095964,79.2846222 368.718455,78.8966557 L367.01562,76.8666684 C366.69669,76.4499956 366.217902,76.1857972 365.695302,76.1381069 C365.172701,76.0904167 364.653989,76.2635876 364.264886,76.6156485 L355.172181,84.2553855 C354.754124,84.5739193 354.489762,85.0539238 354.444049,85.5774618 C354.398336,86.1009999 354.575509,86.619545 354.932037,87.0056908 L356.558463,88.9483668 C356.894405,89.413626 357.412478,89.7139844 357.983216,89.7743815 C358.553953,89.8347786 359.123433,89.6495083 359.549341,89.2648702 Z" id="形状" fill="#3570FF" fill-rule="nonzero"></path>
                        <path d="M385.004548,103.682145 L374.263586,110.787101 C371.207215,112.707949 368.634769,112.154978 366.546248,109.128186 L364.013826,105.297404 C362.150895,102.197854 362.551134,99.6803783 365.214544,97.7449783 L376.064662,90.5854533 C379.150142,88.7300886 381.773527,89.293974 383.934818,92.2771094 L386.412662,96.0424083 C388.15916,99.120131 387.689789,101.66671 385.004548,103.682145 Z M372.102295,106.73804 L381.926346,100.277005 C382.385282,99.9876762 382.700464,99.5178134 382.794039,98.9834777 C382.887615,98.4491421 382.750858,97.9001582 382.417548,97.4721306 L380.954856,95.2893485 C380.686802,94.8365379 380.240025,94.5179047 379.724547,94.4119158 C379.20907,94.3059268 378.672794,94.4224315 378.247784,94.7327391 L368.369156,101.281085 C367.91564,101.551286 367.596858,101.999909 367.490928,102.517019 C367.384997,103.034129 367.501708,103.571936 367.812459,103.998649 L369.209658,106.105033 C369.492554,106.591708 369.966754,106.937324 370.516724,107.057676 C371.066694,107.178028 371.641935,107.062065 372.102295,106.73804 L372.102295,106.73804 Z" id="形状" fill="#3570FF" fill-rule="nonzero"></path>
                        <path d="M395.778257,123.982018 L384.295033,129.875529 C381.049458,131.447133 378.55706,130.610399 376.817839,127.36533 L374.732957,123.2617 C373.226603,119.972975 373.910648,117.517345 376.785092,115.894811 L388.366557,109.990385 C391.64124,108.498818 394.188216,109.353741 396.007485,112.555154 L398.048704,116.549645 C399.456818,119.758335 398.68181,122.235792 395.778257,123.982018 Z M382.614029,125.509965 L393.071185,120.183977 C393.557629,119.946755 393.921431,119.515385 394.073132,118.995941 C394.224834,118.476497 394.15036,117.917171 393.868025,117.4555 L392.667308,115.098095 C392.453139,114.618817 392.045936,114.252678 391.546622,114.090427 C391.047309,113.928175 390.502622,113.984997 390.047561,114.24681 L379.492164,119.627368 C379.010235,119.841755 378.641527,120.250006 378.477223,120.751162 C378.312918,121.252318 378.368357,121.799584 378.629831,122.25762 L379.77597,124.505886 C379.994229,125.037429 380.428658,125.450816 380.970427,125.642489 C381.512196,125.834162 382.10998,125.785962 382.614029,125.509965 L382.614029,125.509965 Z" id="形状" fill="#3570FF" fill-rule="nonzero"></path>
                        <polygon id="路径" fill="#3570FF" fill-rule="nonzero" points="407.283312 138.115532 384.993633 146.497414 383.33446 142.13185 405.624139 133.749968"></polygon>
                        <path d="M410.208696,167.266585 L397.721236,170.453447 C394.217325,171.27199 391.968709,169.896838 390.986304,166.360731 L389.840164,161.896942 C389.112457,158.375387 390.320451,156.130759 393.464147,155.163059 L406.060764,151.943456 C409.582868,151.215862 411.875146,152.609204 412.937599,156.123483 L414.02916,160.489047 C414.691374,163.945119 413.417886,166.204298 410.208696,167.266585 Z M397.033553,165.891433 L408.396705,162.988333 C408.923653,162.862969 409.373769,162.522197 409.63735,162.049069 C409.900932,161.575941 409.95377,161.013913 409.782987,160.499961 L409.128051,157.935192 C409.019124,157.421181 408.699727,156.976341 408.247472,156.708763 C407.795216,156.441186 407.251502,156.375366 406.748447,156.527298 L395.276139,159.452226 C394.760041,159.558551 394.312388,159.876832 394.042501,160.32934 C393.772615,160.781848 393.705342,161.326926 393.857109,161.831458 L394.490215,164.287088 C394.586196,164.852743 394.91833,165.350859 395.403643,165.656996 C395.888955,165.963133 396.481612,166.048377 397.033553,165.891433 L397.033553,165.891433 Z" id="形状" fill="#3570FF" fill-rule="nonzero"></path>
                        <polygon id="路径" fill="#3570FF" fill-rule="nonzero" points="418.329911 183.593795 394.75219 186.867968 394.108169 182.262298 417.68589 178.988125"></polygon>
                        <path d="M414.738675,212.712107 L401.858253,213.050438 C398.256101,213.050438 396.400447,211.238729 396.19305,207.593483 L396.072979,202.998727 C396.138472,199.397136 397.808561,197.476288 401.105076,197.236182 L414.094654,196.897851 C417.707721,196.897851 419.628869,198.829613 419.879928,202.496687 L420,206.982304 C419.861736,210.489307 418.107961,212.399241 414.738675,212.712107 Z M402.196637,208.455682 L413.93092,208.150092 C414.47258,208.146779 414.987672,207.914992 415.349341,207.511814 C415.71101,207.108637 415.885645,206.571539 415.830236,206.032794 L415.764743,203.391627 C415.772135,202.86644 415.559125,202.362177 415.177439,202.001291 C414.795754,201.640406 414.280308,201.45591 413.75627,201.492607 L401.912831,201.798197 C401.387538,201.784282 400.880973,201.993695 400.518887,202.37445 C400.156801,202.755205 399.973147,203.2716 400.013515,203.795442 L400.079008,206.327469 C400.047335,206.899105 400.259867,207.457311 400.663716,207.863178 C401.067564,208.269044 401.624756,208.48441 402.196637,208.455682 L402.196637,208.455682 Z" id="形状" fill="#3570FF" fill-rule="nonzero"></path>
                        <polygon id="路径" fill="#3570FF" fill-rule="nonzero" points="419.017595 230.44721 395.29797 228.395395 395.712763 223.6915 419.421473 225.754229"></polygon>
                        <path d="M409.018894,258.015747 L396.389531,255.472806 C392.874704,254.687005 391.441121,252.482395 392.08878,248.858977 L393.005692,244.351532 C393.871664,240.851805 395.934714,239.349323 399.194844,239.844087 L411.933363,242.408856 C415.433636,243.274693 416.889051,245.526596 416.299608,249.164566 L415.415443,253.53013 C414.505809,256.949822 412.373626,258.445028 409.018894,258.015747 Z M397.753983,251.019931 L409.280869,253.366422 C409.810543,253.484346 410.365399,253.374123 410.809756,253.062706 C411.254114,252.751289 411.547006,252.267389 411.61681,251.729335 L412.129844,249.131824 C412.258981,248.621637 412.166676,248.08065 411.875667,247.642127 C411.584659,247.203604 411.121999,246.908311 410.601658,246.828989 L398.9547,244.471585 C398.444434,244.342468 397.903361,244.434759 397.46477,244.725722 C397.026179,245.016685 396.73084,245.479273 396.651506,245.999532 L396.149388,248.47699 C395.996022,249.028688 396.082829,249.619489 396.388413,250.103774 C396.693997,250.588059 397.189932,250.920781 397.753983,251.019931 Z" id="形状" fill="#3570FF" fill-rule="nonzero"></path>
                        <polygon id="路径" fill="#3570FF" fill-rule="nonzero" points="409.280869 276.231063 386.609143 268.951485 388.050004 264.465868 410.699899 271.75636"></polygon>
                        <path d="M393.398654,300.918328 L381.653455,295.635995 C378.386049,294.100772 377.472776,291.634228 378.913637,288.236364 L380.802038,284.045423 C382.417548,280.814905 384.760766,279.807188 387.831692,281.02227 L399.686046,286.337344 C402.917067,287.952602 403.848533,290.470078 402.480443,293.88977 L400.635704,297.949744 C398.991086,301.09295 396.578735,302.082478 393.398654,300.918328 Z M383.945734,291.63059 L394.653949,296.432711 C395.144479,296.664583 395.710201,296.678248 396.211358,296.470332 C396.712515,296.262415 397.10237,295.852307 397.284612,295.34132 L398.376173,292.918432 C398.615651,292.450574 398.645439,291.903116 398.458137,291.412044 C398.270834,290.920972 397.884017,290.532364 397.393768,290.342749 L386.587312,285.486059 C386.116722,285.253322 385.570469,285.226969 385.079655,285.413325 C384.58884,285.599682 384.197774,285.981923 384.000312,286.468311 L382.963329,288.78206 C382.682271,289.284181 382.628834,289.882346 382.816441,290.426322 C383.004048,290.970297 383.414873,291.408397 383.945734,291.63059 L383.945734,291.63059 Z" id="形状" fill="#3570FF" fill-rule="nonzero"></path>
                        <path d="M382.09008,320.868955 L370.999818,314.320609 C367.93617,312.421589 367.303064,309.87501 369.100502,306.680872 L371.447358,302.719123 C373.412168,299.699608 375.849988,298.972014 378.760818,300.536341 L389.960236,307.139256 C392.980222,309.10376 393.624243,311.712185 391.892299,314.96453 L389.632768,318.751657 C387.617018,321.669309 385.102789,322.375075 382.09008,320.868955 Z M373.728721,310.598966 L383.836578,316.557961 C384.296939,316.841 384.855243,316.917077 385.374569,316.767535 C385.893895,316.617992 386.326206,316.256662 386.565481,315.772159 L387.919017,313.491152 C388.206665,313.050418 388.294832,312.508741 388.1618,311.999556 C388.028767,311.49037 387.686902,311.06101 387.220417,310.817244 L377.025236,304.792766 C376.582717,304.504813 376.039385,304.416467 375.528412,304.549383 C375.017439,304.682298 374.586056,305.024188 374.339995,305.491256 L373.062869,307.674038 C372.741111,308.14021 372.629986,308.720073 372.756609,309.272145 C372.883232,309.824217 373.235957,310.297726 373.728721,310.577138 L373.728721,310.598966 Z" id="形状" fill="#3570FF" fill-rule="nonzero"></path>
                        <path d="M368.63113,339.422602 L358.337708,331.68464 C355.499649,329.458202 355.157627,326.849778 357.311641,323.859366 L360.073291,320.181379 C362.365569,317.394694 364.87616,316.929034 367.605063,318.784398 L377.98581,326.598758 C380.780206,328.890679 381.14406,331.550035 379.077371,334.576826 L376.381215,338.167503 C374.052551,340.830497 371.469189,341.248863 368.63113,339.422602 Z M361.470489,328.2795 L370.847,335.329886 C371.273693,335.664152 371.821765,335.80263 372.356058,335.71117 C372.890351,335.61971 373.361135,335.306825 373.652312,334.849674 L375.245991,332.743289 C375.582774,332.337568 375.7322,331.808343 375.657332,331.286429 C375.582464,330.764516 375.29029,330.298618 374.853029,330.003898 L365.389194,322.877115 C364.983409,322.540384 364.454102,322.390982 363.932107,322.465838 C363.410112,322.540694 362.944141,322.832823 362.649375,323.270015 L361.132105,325.234519 C360.738208,325.664415 360.549398,326.243567 360.614251,326.822973 C360.679105,327.40238 360.99129,327.925473 361.470489,328.257672 L361.470489,328.2795 Z" id="形状" fill="#3570FF" fill-rule="nonzero"></path>
                        <polygon id="路径" fill="#3570FF" fill-rule="nonzero" points="281.56821 353.425149 273.261429 337.523582 276.416041 335.875581 284.711906 351.788062"></polygon>
                        <path d="M259.944382,358.249097 L256.462302,349.245121 C255.545391,346.691266 256.3677,344.872281 258.92923,343.788166 L262.203914,342.54398 C264.772721,341.670868 266.559243,342.372996 267.563479,344.650365 L271.089222,353.785308 C271.962471,356.360991 271.125608,358.201803 268.578631,359.307746 L265.42402,360.51919 C262.826104,361.315906 261.025028,360.562846 259.944382,358.249097 Z M259.802479,348.273783 L262.989838,356.524699 C263.128318,356.909636 263.423945,357.217559 263.802959,357.371639 C264.181973,357.52572 264.60863,357.511428 264.976479,357.332329 L266.832133,356.61201 C267.208418,356.488305 267.51519,356.211859 267.677218,355.850467 C267.839247,355.489075 267.841546,355.076163 267.683551,354.71299 L264.463446,346.385677 C264.337237,346.008716 264.058651,345.701984 263.695507,345.540151 C263.332363,345.378317 262.917972,345.376228 262.553214,345.534392 L260.784884,346.221968 C260.368254,346.343866 260.023135,346.637173 259.835692,347.028659 C259.648249,347.420146 259.636173,347.872864 259.802479,348.273783 L259.802479,348.273783 Z" id="形状" fill="#3570FF" fill-rule="nonzero"></path>
                        <polygon id="路径" fill="#3570FF" fill-rule="nonzero" points="248.439327 365.779695 243.898433 348.426578 247.336851 347.520723 251.877745 364.884754"></polygon>
                        <polygon id="路径" fill="#3570FF" fill-rule="nonzero" points="231.09442 369.08661 228.529251 351.329678 232.044078 350.827638 234.631078 368.58457"></polygon>
                        <polygon id="路径" fill="#3570FF" fill-rule="nonzero" points="213.509369 370.450848 212.919926 352.519294 216.478416 352.399241 217.067859 370.330795"></polygon>
                        <path d="M192.060192,365.474105 L192.802453,355.804381 C193.064428,353.097731 194.592614,351.820804 197.354264,351.984513 L200.814513,352.246446 C203.510669,352.573864 204.820542,353.970844 204.744133,356.459216 L203.990956,366.227165 C203.670764,368.919263 202.120747,370.218018 199.340905,370.123431 L195.978896,369.861497 C193.30821,369.490424 192.001975,368.02796 192.060192,365.474105 Z M196.229956,356.41556 L195.553188,365.223086 C195.513205,365.630096 195.646801,366.035086 195.921118,366.33845 C196.195435,366.641813 196.585017,366.8154 196.994048,366.816516 L198.98069,366.969311 C199.374012,367.01866 199.76992,366.899962 200.071188,366.642367 C200.372455,366.384771 200.551174,366.012141 200.563453,365.615986 L201.251137,356.710236 C201.300494,356.316975 201.181778,355.921129 200.924142,355.619908 C200.666506,355.318687 200.293818,355.139997 199.897601,355.127719 L197.998285,354.985838 C197.563255,354.903129 197.113734,355.013162 196.766116,355.287444 C196.418497,355.561727 196.206965,355.973288 196.186293,356.41556 L196.229956,356.41556 Z" id="形状" fill="#3570FF" fill-rule="nonzero"></path>
                        <polygon id="路径" fill="#3570FF" fill-rule="nonzero" points="178.38293 367.318556 181.755854 349.703505 185.24885 350.369254 181.875926 367.984305"></polygon>
                        <path d="M158.451023,357.692488 L161.34366,348.426578 C162.209632,345.850895 163.970684,344.945041 166.626816,345.709014 L169.9015,346.745836 C172.455753,347.662604 173.427242,349.321519 172.794137,351.733493 L169.879668,361.0758 C168.973673,363.640569 167.172597,364.557337 164.487356,363.847933 L161.212673,362.843853 C158.811238,361.894343 157.86158,360.159031 158.451023,357.692488 Z M164.541934,349.790817 L161.922187,358.227269 C161.795941,358.620053 161.842829,359.047994 162.051131,359.404135 C162.259433,359.760276 162.609467,360.010965 163.013748,360.093548 L164.923981,360.693813 C165.297183,360.825973 165.708637,360.796233 166.058948,360.611779 C166.409259,360.427324 166.666569,360.104929 166.768719,359.722475 L169.421213,351.198711 C169.556907,350.825673 169.528798,350.412694 169.343808,350.061476 C169.158818,349.710258 168.834138,349.453438 168.449723,349.35426 L166.626816,348.786737 C166.219265,348.609601 165.754782,348.618617 165.354415,348.811434 C164.954047,349.004251 164.657456,349.361769 164.541934,349.790817 L164.541934,349.790817 Z" id="形状" fill="#3570FF" fill-rule="nonzero"></path>
                        <polygon id="路径" fill="#3570FF" fill-rule="nonzero" points="144.762845 356.448302 151.978065 340.022867 155.252748 341.452589 148.037529 357.878024"></polygon>
                        <polygon id="路径" fill="#3570FF" fill-rule="nonzero" points="129.120773 348.284697 138.126153 332.765117 141.204356 334.554998 132.198976 350.063664"></polygon>
                        <path d="M113.467786,332.623236 L119.242145,324.830704 C120.915872,322.647922 122.880682,322.375075 125.136575,324.012161 L127.920056,326.07489 C130.037685,327.792012 130.401539,329.680118 129.011617,331.73921 L123.182681,339.608139 C121.468929,341.725437 119.471373,341.998285 117.168178,340.437596 L114.450191,338.429436 C112.448996,336.705039 112.121527,334.769639 113.467786,332.623236 Z M121.829145,327.166281 L116.56782,334.271237 C116.316732,334.594557 116.213853,335.008847 116.284528,335.412044 C116.355202,335.815241 116.592859,336.169859 116.938951,336.388535 L118.543545,337.578151 C118.853335,337.825594 119.252538,337.932158 119.644456,337.872032 C120.036375,337.811906 120.385258,337.590573 120.606596,337.261648 L125.922499,330.091209 C126.16998,329.781468 126.276561,329.382327 126.216425,328.99047 C126.15629,328.598613 125.934923,328.249784 125.605946,328.02848 L124.077761,326.937089 C123.759332,326.66459 123.342938,326.534819 122.926048,326.578152 C122.509157,326.621486 122.128366,326.834119 121.872807,327.166281 L121.829145,327.166281 Z" id="形状" fill="#3570FF" fill-rule="nonzero"></path>
                        <path d="M100.652858,321.065406 L107.202225,313.96045 C109.101541,312.017774 111.077267,311.963205 113.151233,313.807655 L115.683655,316.175974 C117.597526,318.111374 117.750344,320.024946 116.142111,321.91669 L109.472672,329.087129 C107.540609,330.997064 105.510305,331.051633 103.403592,329.250838 L100.925748,326.948003 C99.1574187,325.005327 99.0482626,323.051737 100.652858,321.065406 Z M109.559997,316.579788 L103.545495,323.051737 C103.246862,323.345798 103.089914,323.754557 103.115017,324.172882 C103.140121,324.591206 103.344826,324.97827 103.676482,325.234519 L105.139174,326.587844 C105.416827,326.870401 105.799978,327.024041 106.195958,327.011604 C106.591938,326.999167 106.964688,326.821785 107.224056,326.522361 L113.304052,319.974014 C113.588447,319.696541 113.742349,319.311842 113.727796,318.914809 C113.713242,318.517776 113.531589,318.145372 113.227642,317.889458 L111.830444,316.590702 C111.542207,316.267792 111.130523,316.082254 110.697649,316.080156 C110.264775,316.078093 109.851326,316.259664 109.559997,316.579788 L109.559997,316.579788 Z" id="形状" fill="#3570FF" fill-rule="nonzero"></path>
                        <path d="M89.1587182,308.165164 L96.5267562,301.835096 C98.6225537,300.110698 100.594641,300.281683 102.443018,302.34805 L104.735296,304.978302 C106.423578,307.110153 106.361723,309.031001 104.549731,310.740847 L97.0943681,317.125484 C94.9112457,318.806226 92.9464355,318.631604 91.0471191,316.601616 L88.8639967,314.036847 C87.2484861,311.912273 87.3467266,309.955045 89.1587182,308.165164 Z M98.5243132,304.69454 L91.8112119,310.457085 C91.4871641,310.720298 91.2910576,311.109421 91.2722889,311.526438 C91.2535202,311.943456 91.4138783,312.348617 91.7129714,312.639867 L93.0119292,314.1569 C93.2585584,314.468396 93.6245109,314.662233 94.0207959,314.691275 C94.4170808,314.720318 94.8073906,314.581905 95.0968111,314.309695 L101.86449,308.492581 C102.178985,308.247965 102.375105,307.881581 102.404233,307.484259 C102.433361,307.086937 102.292768,306.695877 102.017309,306.408024 L100.772929,304.967388 C100.526044,304.612184 100.139246,304.379247 99.7097752,304.327135 C99.2803044,304.275023 98.8490086,304.408692 98.5243132,304.69454 L98.5243132,304.69454 Z" id="形状" fill="#3570FF" fill-rule="nonzero"></path>
                        <polygon id="路径" fill="#3570FF" fill-rule="nonzero" points="78.1994438 299.859678 93.0228448 289.742484 95.0313174 292.678325 80.2079164 302.784606"></polygon>
                        <path d="M70.8968994,279.01411 L79.4765704,274.473924 C81.8998363,273.251566 83.8428152,273.862745 85.141773,276.285633 L86.7572836,279.341527 C87.925254,281.797157 87.4449671,283.707091 85.3055072,284.918535 L76.6494269,289.502378 C74.1970528,290.673804 72.268628,290.062625 70.8641526,287.668841 L69.2813889,284.678429 C68.1752735,282.248265 68.7137771,280.360159 70.8968994,279.01411 Z M80.7864438,277.704441 L72.9817813,281.840813 C72.6154516,282.021858 72.3432371,282.349911 72.2329017,282.74331 C72.1225662,283.136709 72.1844885,283.558448 72.4032539,283.903542 L73.3419965,285.671595 C73.5111486,286.028891 73.8227404,286.298626 74.200621,286.414879 C74.5785016,286.531132 74.9878549,286.483192 75.3286379,286.282774 L83.2206253,282.102747 C83.577977,281.933621 83.8477542,281.622078 83.9640252,281.244256 C84.0802961,280.866434 84.0323482,280.457145 83.8318996,280.116415 L82.9040726,278.424759 C82.733261,278.032443 82.4046924,277.730492 81.9993367,277.593316 C81.593981,277.45614 81.1495364,277.496497 80.7755282,277.704441 L80.7864438,277.704441 Z" id="形状" fill="#3570FF" fill-rule="nonzero"></path>
                        <polygon id="路径" fill="#3570FF" fill-rule="nonzero" points="62.0334226 268.482187 78.7343088 261.933841 80.0332666 265.208014 63.3323804 271.75636"></polygon>
                        <path d="M59.544663,246.490658 L68.9211737,243.980459 C71.5518362,243.336538 73.2874185,244.340618 74.0405957,247.003612 L74.9356759,250.354182 C75.5251189,253.006263 74.6409543,254.719746 72.2613509,255.461892 L62.808431,258.004833 C60.1522988,258.594184 58.4094394,257.564639 57.5798529,254.916197 L56.7066039,251.642024 C56.1826546,249.044513 57.1286743,247.327391 59.544663,246.490658 Z M69.4778699,247.418341 L60.9418614,249.710262 C60.5444552,249.806878 60.2068384,250.067802 60.0131868,250.427979 C59.8195352,250.788157 59.7880966,251.213648 59.9267095,251.598368 L60.4397432,253.519216 C60.5122641,253.915083 60.7507565,254.260994 61.0949864,254.469585 C61.4392162,254.678177 61.8562713,254.729505 62.2408192,254.610607 L70.8641526,252.296858 C71.2600806,252.224349 71.6060455,251.985894 71.8146697,251.641717 C72.0232938,251.297541 72.0746304,250.880551 71.9557138,250.496063 L71.4535957,248.651612 C71.3918667,248.206203 71.1356909,247.811126 70.754198,247.572994 C70.372705,247.334861 69.9052108,247.278215 69.4778699,247.418341 L69.4778699,247.418341 Z" id="形状" fill="#3570FF" fill-rule="nonzero"></path>
                        <path d="M56.7066039,229.443131 L66.3014268,228.002495 C68.997583,227.653249 70.5803467,228.85378 71.049718,231.582257 L71.5627518,235.009225 C71.8538348,237.715875 70.7804663,239.309305 68.3426463,239.789517 L58.6604985,241.251981 C55.9534267,241.535743 54.2942537,240.324299 53.8139668,237.595822 L53.3118486,234.256165 C53.0644281,231.607723 54.1960132,230.003378 56.7066039,229.443131 Z M66.5306547,231.484032 L57.7981651,232.793701 C57.3923614,232.847666 57.028206,233.070426 56.7954006,233.40711 C56.5625952,233.743794 56.4827803,234.163105 56.5756166,234.561755 L56.8703381,236.526258 C56.9120217,236.92161 57.1176852,237.281342 57.4372568,237.517871 C57.7568285,237.7544 58.16099,237.846027 58.5513424,237.770444 L67.3820724,236.438947 C67.7746273,236.397307 68.1316735,236.192825 68.3661973,235.875333 C68.6007211,235.557842 68.6911828,235.156501 68.6155366,234.769119 L68.3317306,232.881012 C68.3096699,232.426404 68.0846298,232.00572 67.7186897,231.735009 C67.3527497,231.464298 66.8845801,231.372167 66.4433298,231.484032 L66.5306547,231.484032 Z" id="形状" fill="#3570FF" fill-rule="nonzero"></path>
                        <polygon id="路径" fill="#3570FF" fill-rule="nonzero" points="51.8164098 216.586545 69.7398446 215.909882 69.8817475 219.456903 51.9473971 220.144479"></polygon>
                        <polygon id="路径" fill="#3570FF" fill-rule="nonzero" points="52.3403592 198.993322 70.2310471 200.281163 69.979988 203.81727 52.0893001 202.540342"></polygon>
                        <polygon id="路径" fill="#3570FF" fill-rule="nonzero" points="54.7417938 181.520152 72.3923383 184.794325 71.7374016 188.286776 54.0977727 185.012603"></polygon>
                        <path d="M64.2602074,161.525869 L73.5384775,164.352571 C76.1254776,165.203856 77.0314733,166.960996 76.2892117,169.62399 L75.2740598,172.898163 C74.368064,175.462932 72.7198066,176.445184 70.3074564,175.823091 L60.9309458,172.97456 C58.3766926,172.068706 57.4379499,170.278824 58.1365491,167.594003 L59.1189542,164.31983 C60.0576968,161.904217 61.7714479,160.972897 64.2602074,161.525869 Z M72.1958573,167.572175 L63.7471736,164.996492 C63.3543093,164.866568 62.9245402,164.911795 62.5673388,165.120653 C62.2101373,165.32951 61.9599859,165.681835 61.880604,166.087883 L61.3020766,167.997817 C61.1664771,168.369413 61.1947915,168.781067 61.3799921,169.130604 C61.5651927,169.480142 61.8899164,169.734794 62.273566,169.831354 L70.8204902,172.439779 C71.1938282,172.568037 71.6037285,172.535005 71.9517029,172.348619 C72.2996773,172.162234 72.5542714,171.839342 72.654313,171.457527 L73.2110092,169.634904 C73.3725326,169.232262 73.3539217,168.779745 73.1598803,168.391722 C72.9658389,168.0037 72.6149346,167.717303 72.1958573,167.604916 L72.1958573,167.572175 Z" id="形状" fill="#3570FF" fill-rule="nonzero"></path>
                        <polygon id="路径" fill="#3570FF" fill-rule="nonzero" points="65.4390935 147.850739 81.8889207 154.977523 80.4808067 158.251696 64.0091483 151.124912"></polygon>
                        <path d="M79.1600177,130.486708 L87.5868701,135.332484 C89.9082569,136.729465 90.4067365,138.646675 89.0823089,141.084115 L87.3576422,144.063613 C85.9022273,146.355534 84.0829587,146.933971 81.8998363,145.798924 L73.4074902,140.93132 C71.1042961,139.47977 70.6021779,137.52618 71.8793045,135.059637 L73.5603088,132.123795 C75.0084466,129.897357 76.8750162,129.351662 79.1600177,130.486708 Z M85.5565663,138.126445 L77.9156379,133.760881 C77.5654831,133.547872 77.1415887,133.492777 76.7486035,133.609199 C76.3556183,133.725621 76.0301641,134.00271 75.8525873,134.37206 L74.8701822,136.107372 C74.6568805,136.440183 74.5933329,136.847317 74.6950685,137.229285 C74.7968041,137.611253 75.0544505,137.932866 75.4050472,138.115532 L83.1551316,142.557493 C83.4893724,142.769963 83.8976549,142.831864 84.2798685,142.728018 C84.662082,142.624172 84.9828805,142.364182 85.1636042,142.011797 L86.1132625,140.363797 C86.3588344,140.004808 86.4384921,139.557701 86.3320085,139.136008 C86.2255248,138.714315 85.9431429,138.3586 85.5565663,138.159187 L85.5565663,138.126445 Z" id="形状" fill="#3570FF" fill-rule="nonzero"></path>
                        <polygon id="路径" fill="#3570FF" fill-rule="nonzero" points="83.340697 117.40093 97.8147985 127.998337 95.719001 130.868695 81.2448996 120.260375"></polygon>
                        <path d="M100.565533,103.529351 L107.715258,110.077697 C109.669153,111.965803 109.734647,113.941221 107.900824,116.025778 L105.553967,118.579633 C103.621904,120.500481 101.711672,120.664189 99.8014398,119.059845 L92.597136,112.413273 C90.6759883,110.477873 90.6104946,108.455162 92.4006549,106.345139 L94.6929334,103.856768 C96.6140811,102.066887 98.5788913,101.93592 100.565533,103.529351 Z M105.106427,112.413273 L98.5570601,106.421537 C98.2582867,106.128783 97.8484441,105.977944 97.4311386,106.00715 C97.0138332,106.036357 96.6290053,106.242815 96.3739377,106.574332 L95.1077267,108.047709 C94.8283096,108.326374 94.678678,108.709489 94.6952803,109.103732 C94.7118826,109.497976 94.8931949,109.867159 95.1950516,110.121352 L101.744419,116.167658 C102.023432,116.450697 102.40909,116.602651 102.806214,116.586021 C103.203339,116.56939 103.574936,116.385723 103.829301,116.080347 L105.117343,114.672453 C105.44021,114.384978 105.623977,113.972659 105.621906,113.5404 C105.6198,113.108141 105.432057,112.697615 105.106427,112.413273 Z" id="形状" fill="#3570FF" fill-rule="nonzero"></path>
                        <polygon id="路径" fill="#3570FF" fill-rule="nonzero" points="107.518777 91.6768443 119.296723 105.210093 116.611482 107.54567 104.833537 94.0342489"></polygon>
                        <path d="M127.385191,81.9634644 L132.842997,89.9524465 C134.342074,92.2225398 133.978221,94.1688538 131.751436,95.7913884 L128.902461,97.7558922 C126.602906,99.2110802 124.696312,98.9491464 123.182681,96.9700907 L117.615718,88.9047112 C116.163942,86.6127901 116.524157,84.6264584 118.772773,82.9566302 L121.545339,81.035782 C123.859449,79.6715433 125.791512,79.9771328 127.385191,81.9634644 Z M129.841204,91.6768443 L124.820022,84.3645246 C124.592039,84.0280292 124.234287,83.8015696 123.832563,83.7394571 C123.43084,83.6773446 123.021384,83.7851822 122.702394,84.0371073 L121.108714,85.1284983 C120.771827,85.3387676 120.539411,85.6814983 120.468734,86.0722372 C120.398057,86.4629762 120.495693,86.865388 120.737583,87.1803134 L125.813343,94.5253748 C126.021474,94.8615919 126.36236,95.0938732 126.75145,95.1646058 C127.14054,95.2353384 127.541385,95.1378962 127.854562,94.8964478 L129.426411,93.8050568 C129.764812,93.5787546 129.998913,93.226799 130.076784,92.8272607 C130.154655,92.4277224 130.069858,92.0136326 129.841204,91.6768443 L129.841204,91.6768443 Z" id="形状" fill="#3570FF" fill-rule="nonzero"></path>
                        <polygon id="路径" fill="#3570FF" fill-rule="nonzero" points="136.794449 71.9554089 145.275879 87.7587506 142.154014 89.4940623 133.661668 73.636151"></polygon>
                        <path d="M158.320035,66.8804407 L161.922187,75.8844165 C162.882761,78.4382714 162.075006,80.2499805 159.520753,81.3413715 L156.311563,82.6292129 C153.735478,83.5241535 151.945318,82.8474911 150.91925,80.5883117 L147.306183,71.4861108 C146.411103,68.9213419 147.218858,67.1205467 149.75128,65.9309305 L152.894976,64.6758309 C155.394651,63.8463737 157.206643,64.5776057 158.320035,66.8804407 Z M158.571094,76.8557545 L155.296411,68.6484941 C155.15099,68.2667585 154.851429,67.9639555 154.471244,67.814398 C154.09106,67.6648405 153.665445,67.682373 153.298854,67.8626926 L151.4432,68.6048385 C151.067838,68.7322477 150.764271,69.0130777 150.60812,69.3773724 C150.45197,69.741667 150.457935,70.1551327 150.624529,70.5147728 L153.899213,78.7984305 C154.027201,79.1735483 154.307401,79.4773515 154.670999,79.6352327 C155.034598,79.7931138 155.447914,79.7904472 155.809445,79.6278876 L157.588689,78.9184835 C158.008133,78.7970263 158.355572,78.5019616 158.543315,78.1077623 C158.731058,77.7135629 158.741169,77.2578906 158.571094,76.8557545 L158.571094,76.8557545 Z" id="形状" fill="#3570FF" fill-rule="nonzero"></path>
                        <polygon id="路径" fill="#3570FF" fill-rule="nonzero" points="169.72685 59.207962 174.486057 76.5065094 171.058554 77.4451056 166.310263 60.1465582"></polygon>
                        <polygon id="路径" fill="#3570FF" fill-rule="nonzero" points="187.03901 55.6609412 189.877069 73.4178728 186.362242 73.9635683 183.578761 56.2393784"></polygon>
                        <polygon id="路径" fill="#3570FF" fill-rule="nonzero" points="204.60223 54.1220799 205.39907 72.0318063 201.851496 72.184601 201.04374 54.2639607"></polygon>
                        <polygon id="路径" fill="#3570FF" fill-rule="nonzero" points="222.209112 54.5040667 221.041141 72.4028792 217.493568 72.1736871 218.661538 54.2748746"></polygon>
                        <polygon id="路径" fill="#3570FF" fill-rule="nonzero" points="239.685007 56.8178157 236.54131 74.4765221 233.037399 73.8544292 236.181095 56.1957228"></polygon>
                        <path d="M259.736986,66.1928644 L256.96442,75.5024296 C256.134834,78.0890263 254.388336,79.0057948 251.714011,78.2745628 L248.384749,77.2923109 C245.819581,76.3973703 244.82626,74.7493699 245.426618,72.3373957 L248.221015,62.9514331 C249.108818,60.3903022 250.89534,59.44443 253.580581,60.1138165 L256.855264,61.0742406 C259.336747,62.0055609 260.29732,63.7117688 259.736986,66.1928644 Z M253.744315,74.2145883 L256.265821,65.7344802 C256.388422,65.3431106 256.339717,64.91815 256.131747,64.5646556 C255.923776,64.2111612 255.575951,63.962126 255.17426,63.8791155 L253.274943,63.3006782 C252.90017,63.1691929 252.487288,63.2020712 252.138054,63.3912102 C251.788819,63.5803491 251.535716,63.908157 251.441121,64.293844 L248.897783,72.8503495 C248.766277,73.2250648 248.799161,73.6378826 248.988329,73.9870622 C249.177498,74.3362418 249.505357,74.5893061 249.891104,74.6838864 L251.714011,75.2295819 C252.117119,75.3838739 252.566502,75.3618303 252.952569,75.1688269 C253.338636,74.9758235 253.625903,74.6295997 253.744315,74.2145883 Z" id="形状" fill="#3570FF" fill-rule="nonzero"></path>
                        <polygon id="路径" fill="#3570FF" fill-rule="nonzero" points="273.436079 67.2624276 266.41734 83.7751735 263.142657 82.3891069 270.15048 65.876361"></polygon>
                        <path d="M290.868311,80.8720734 L286.098189,89.3194398 C284.715544,91.6550165 282.801674,92.1679703 280.356577,90.8583011 L277.332952,89.1557311 C275.029758,87.715095 274.429399,85.8815581 275.553707,83.6987761 L280.367492,75.1750123 C281.808353,72.8612634 283.762248,72.3483096 286.229176,73.6034093 L289.176391,75.2623236 C291.381345,76.7029597 291.945318,78.5728763 290.868311,80.8720734 Z M283.227383,87.3112803 L287.593627,79.6715433 C287.801448,79.3195607 287.851215,78.8962839 287.7307,78.5057093 C287.610185,78.1151348 287.330558,77.7934635 286.960522,77.6197282 L285.22494,76.6374763 C284.887097,76.4299823 284.477839,76.3732733 284.096293,76.4810848 C283.714746,76.5888963 283.395713,76.8513947 283.216467,77.2049996 L278.850222,84.9757036 C278.638501,85.3112721 278.578221,85.720584 278.684214,86.1029282 C278.790206,86.4852724 279.052631,86.8051528 279.406918,86.983863 L281.077007,87.9224593 C281.440702,88.1525605 281.885022,88.2174 282.299322,88.1008313 C282.713622,87.9842626 283.058914,87.697255 283.249214,87.3112803 L283.227383,87.3112803 Z" id="形状" fill="#3570FF" fill-rule="nonzero"></path>
                        <polygon id="路径" fill="#3570FF" fill-rule="nonzero" points="303.999792 84.9647896 293.498973 99.5021178 290.617252 97.4284749 301.118071 82.8802328"></polygon>
                        <path d="M317.982691,102.088714 L311.433324,109.270067 C309.566754,111.245485 307.580113,111.321882 305.495231,109.499259 L302.919147,107.174597 C300.990722,105.2683 300.816072,103.354728 302.395197,101.43388 L308.944564,94.1761297 C310.858435,92.2407297 312.881462,92.1643323 315.013645,93.9469376 L317.589729,96.2170309 C319.434467,98.1269652 319.565455,100.091469 317.982691,102.088714 Z M309.13013,106.694385 L315.068223,100.146039 C315.363187,99.8474758 315.514479,99.4358853 315.483088,99.0173984 C315.451696,98.5989115 315.240694,98.2144888 314.904488,97.9632565 L313.430881,96.6208456 C313.148781,96.3422562 312.762972,96.1943817 312.366906,96.2130416 C311.970841,96.2317015 311.600648,96.4151935 311.345999,96.7190708 L305.353328,103.3329 C305.071546,103.613362 304.921484,103.999861 304.940198,104.396957 C304.958913,104.794052 305.144658,105.16473 305.451568,105.417457 L306.859682,106.694385 C307.149469,107.015897 307.562034,107.199448 307.994906,107.199448 C308.427778,107.199448 308.840343,107.015897 309.13013,106.694385 Z" id="形状" fill="#3570FF" fill-rule="nonzero"></path>
                        <polygon id="路径" fill="#3570FF" fill-rule="nonzero" points="329.869792 108.953564 316.421758 120.827898 314.063986 118.15399 327.522936 106.29057"></polygon>
                        <path d="M339.737506,128.784138 L331.79094,134.350233 C329.531408,135.867266 327.588429,135.496193 325.951088,133.258842 L323.953531,130.410311 C322.490839,128.129304 322.741898,126.21937 324.706708,124.702336 L332.729683,119.070759 C335.021961,117.615571 337.008603,117.979368 338.689607,120.16215 L340.632586,122.934283 C342.007953,125.204376 341.709593,127.154328 339.737506,128.784138 Z M330.088105,131.316166 L337.325155,126.241197 C337.682024,126.012694 337.921221,125.639693 337.979976,125.220076 C338.038732,124.800459 337.91118,124.376121 337.630792,124.058415 L336.484653,122.432243 C336.274849,122.094355 335.930953,121.861895 335.539172,121.793136 C335.147392,121.724376 334.744872,121.825837 334.432518,122.072084 L327.129974,127.190708 C326.792034,127.400479 326.559537,127.744322 326.490767,128.136041 C326.421997,128.52776 326.523474,128.930217 326.769759,129.242523 L327.86132,130.814126 C328.080661,131.187546 328.447216,131.451278 328.871028,131.540596 C329.294839,131.629915 329.736676,131.536554 330.088105,131.283424 L330.088105,131.316166 Z" id="形状" fill="#3570FF" fill-rule="nonzero"></path>
                        <polygon id="路径" fill="#3570FF" fill-rule="nonzero" points="349.812615 138.08279 334.072303 146.682951 332.369467 143.561573 348.153442 134.961412"></polygon>
                        <path d="M355.052109,159.583193 L346.06856,163.250266 C343.525223,164.221604 341.702316,163.435803 340.610754,160.892862 L339.300881,157.684172 C338.38397,155.115765 339.053461,153.31497 341.309354,152.281787 L350.369312,148.571057 C352.938119,147.654289 354.797411,148.45828 355.947189,150.983031 L357.224316,154.115324 C358.068456,156.640075 357.344388,158.462698 355.052109,159.583193 Z M345.07524,159.91061 L353.261949,156.570953 C353.641795,156.423346 353.942101,156.122909 354.089506,155.743035 C354.236912,155.363161 354.217843,154.938833 354.036957,154.573708 L353.28378,152.729257 C353.154443,152.35301 352.870795,152.049748 352.503986,151.895546 C352.137178,151.741344 351.722012,151.750831 351.362632,151.921628 L343.099514,155.294026 C342.723208,155.423342 342.419899,155.706947 342.265673,156.073698 C342.111447,156.44045 342.120935,156.855551 342.291759,157.214874 L343.012189,158.972014 C343.140292,159.385574 343.439015,159.724706 343.833139,159.904015 C344.227264,160.083324 344.679233,160.085724 345.07524,159.91061 L345.07524,159.91061 Z" id="形状" fill="#3570FF" fill-rule="nonzero"></path>
                        <path d="M360.029628,176.139594 L350.685864,178.769846 C348.055202,179.457423 346.31962,178.464257 345.533695,175.812177 L344.594953,172.47252 C343.961847,169.831354 344.835096,168.106956 347.192868,167.332069 L356.623957,164.679989 C359.265535,164.046982 360.990202,165.061975 361.885282,167.692228 L362.802194,170.966401 C363.362528,173.563911 362.43834,175.288309 360.029628,176.139594 Z M350.085506,175.342879 L358.588767,172.941818 C358.98487,172.840603 359.31932,172.57591 359.508788,172.213686 C359.698256,171.851463 359.724902,171.425816 359.582088,171.042798 L359.069054,169.165606 C358.979113,168.778556 358.729777,168.447531 358.382565,168.254203 C358.035353,168.060876 357.622601,168.023251 357.246147,168.150612 L348.65556,170.5735 C348.26923,170.660764 347.938094,170.907866 347.744511,171.253347 C347.550928,171.598828 347.51309,172.010223 347.640409,172.385209 L348.153442,174.218746 C348.247354,174.631988 348.508697,174.987673 348.875027,175.200815 C349.241358,175.413957 349.679768,175.46541 350.085506,175.342879 Z" id="形状" fill="#3570FF" fill-rule="nonzero"></path>
                        <path d="M363.107831,193.176208 L353.534839,194.736897 C350.835044,195.122522 349.237726,193.947457 348.742885,191.211704 L348.186189,187.79565 C347.858721,185.099914 348.917535,183.430086 351.351717,182.971702 L361.012033,181.400099 C363.708189,181.072681 365.378278,182.273212 365.902227,184.990775 L366.448008,188.330432 C366.709983,190.993426 365.618421,192.575943 363.107831,193.176208 Z M353.28378,191.25536 L362.016269,189.836551 C362.422086,189.780687 362.784937,189.554754 363.014086,189.215249 C363.243236,188.875744 363.31702,188.454766 363.216987,188.057584 L362.900434,186.09308 C362.853485,185.699374 362.643909,185.343272 362.322484,185.111053 C362.001059,184.878833 361.597112,184.791685 361.208514,184.870722 L352.399615,186.311358 C352.005848,186.3583 351.64969,186.567843 351.417435,186.889218 C351.185179,187.210594 351.098017,187.614477 351.177067,188.003014 L351.482704,189.880207 C351.523254,190.313414 351.746599,190.708789 352.096724,190.967174 C352.446849,191.22556 352.890542,191.322445 353.316527,191.233532 L353.28378,191.25536 Z" id="形状" fill="#3570FF" fill-rule="nonzero"></path>
                        <polygon id="路径" fill="#3570FF" fill-rule="nonzero" points="368.129012 205.934569 350.205577 206.840423 350.030928 203.293402 367.954362 202.387548"></polygon>
                        <path d="M363.53354,227.565938 L353.840476,226.987501 C351.133404,226.769223 349.834447,225.274017 349.943603,222.501884 L350.150999,219.042174 C350.434805,216.335525 351.810172,214.993114 354.298932,215.025856 L364.122983,215.615207 C366.819139,215.888054 368.150843,217.416002 368.096265,220.199049 L367.899784,223.571447 C367.517738,226.212613 366.087793,227.54411 363.53354,227.565938 Z M354.397172,223.549619 L363.216987,224.073487 C363.626194,224.107513 364.030674,223.966686 364.330236,223.68589 C364.629798,223.405095 364.796422,223.010595 364.788835,222.600109 L364.908907,220.613778 C364.948633,220.219211 364.821391,219.826029 364.558018,219.529521 C364.294646,219.233014 363.919182,219.060245 363.522624,219.053088 L354.615485,218.518307 C354.220119,218.475132 353.82493,218.60114 353.527558,218.865199 C353.230186,219.129257 353.058367,219.506737 353.054552,219.904373 L352.93448,221.803394 C352.875679,222.233063 353.000933,222.667594 353.279424,223.000068 C353.557914,223.332543 353.963786,223.532093 354.397172,223.549619 L354.397172,223.549619 Z" id="形状" fill="#3570FF" fill-rule="nonzero"></path>
                        <polygon id="路径" fill="#3570FF" fill-rule="nonzero" points="365.618421 241.197412 347.93513 238.141517 348.546404 234.638152 366.229696 237.694047"></polygon>
                        <path d="M356.351067,261.224437 L347.061881,258.506873 C344.471243,257.691968 343.536138,255.942104 344.256569,253.257282 L345.228058,249.92854 C346.101307,247.352857 347.738649,246.359691 350.161915,246.949042 L359.560257,249.688434 C362.136341,250.561547 363.093277,252.344152 362.431063,255.03625 L361.481404,258.310423 C360.542662,260.84245 358.839826,261.759218 356.351067,261.224437 Z M348.328092,255.276356 L356.820438,257.742899 C357.211869,257.865481 357.636896,257.816784 357.990445,257.608846 C358.343995,257.400908 358.593069,257.053137 358.676092,256.651508 L359.232788,254.741574 C359.360504,254.365284 359.324542,253.952689 359.133651,253.60416 C358.94276,253.255631 358.614437,253.003114 358.228552,252.908037 L349.659797,250.408752 C349.283448,250.281057 348.870789,250.317013 348.522206,250.507874 C348.173622,250.698735 347.921065,251.027007 347.825974,251.412832 L347.291109,253.246369 C347.137432,253.652379 347.162418,254.104402 347.359909,254.491008 C347.557399,254.877613 347.90902,255.162832 348.328092,255.276356 L348.328092,255.276356 Z" id="形状" fill="#3570FF" fill-rule="nonzero"></path>
                        <polygon id="路径" fill="#3570FF" fill-rule="nonzero" points="355.346831 274.932308 338.798763 268.012889 340.17413 264.738716 356.722198 271.669049"></polygon>
                        <path d="M341.833303,292.492789 L333.351873,287.756152 C331.008655,286.395551 330.484705,284.485617 331.780024,282.026349 L333.471944,279.003196 C334.927359,276.682171 336.746628,276.078268 338.92975,277.191487 L347.476674,281.960866 C349.790784,283.379674 350.325649,285.329626 349.081269,287.810722 L347.433012,290.768391 C346.006705,292.965725 344.140136,293.540524 341.833303,292.492789 Z M335.338514,284.853052 L343.066767,289.153133 C343.418523,289.359933 343.841483,289.407908 344.230632,289.285148 C344.619781,289.162388 344.938621,288.880404 345.107987,288.509212 L346.079476,286.762986 C346.290115,286.427734 346.348587,286.018864 346.240353,285.638025 C346.13212,285.257187 345.867348,284.940152 345.511864,284.765741 L337.718117,280.400177 C337.3789,280.193455 336.968549,280.138369 336.586809,280.248309 C336.20507,280.358249 335.886902,280.623148 335.709645,280.978614 L334.781818,282.637528 C334.535942,282.998261 334.456126,283.446918 334.562509,283.870298 C334.668892,284.293677 334.951313,284.651343 335.338514,284.853052 Z" id="形状" fill="#3570FF" fill-rule="nonzero"></path>
                        <polygon id="路径" fill="#3570FF" fill-rule="nonzero" points="337.805442 305.589481 323.200353 295.166697 325.230657 292.274511 339.835746 302.708209"></polygon>
                        <path d="M320.744341,319.668425 L313.518206,313.229218 C311.531564,311.362939 311.455155,309.387522 313.256231,307.281137 L315.581256,304.705454 C317.480573,302.762778 319.394443,302.577242 321.322868,304.148845 L328.603581,310.697191 C330.54656,312.596211 330.633885,314.615285 328.865556,316.754411 L326.606024,319.275524 C324.706708,321.087233 322.752813,321.240028 320.744341,319.668425 Z M316.09429,310.828158 L322.643657,316.743497 C322.945393,317.033817 323.357109,317.18091 323.774531,317.147522 C324.191954,317.114133 324.575045,316.903466 324.82678,316.568875 L326.147569,315.084583 C326.428062,314.802634 326.576215,314.41523 326.555419,314.018097 C326.534624,313.620964 326.34682,313.251147 326.038413,313.000026 L319.401721,307.041031 C319.119728,306.760581 318.732264,306.612452 318.335069,306.633244 C317.937874,306.654036 317.567999,306.841811 317.316839,307.15017 L316.039712,308.568979 C315.725489,308.86442 315.551882,309.279616 315.562298,309.710757 C315.572713,310.141898 315.766167,310.54823 316.09429,310.828158 L316.09429,310.828158 Z" id="形状" fill="#3570FF" fill-rule="nonzero"></path>
                        <path d="M308.038568,331.37905 L301.576526,324.143128 C299.819113,322.069485 299.9501,320.094068 301.991319,318.205961 L304.57832,315.903126 C306.688671,314.178728 308.609819,314.207832 310.341763,315.990437 L316.89113,323.302757 C318.604881,325.409142 318.473893,327.428215 316.476337,329.359977 L313.95483,331.608243 C311.81537,333.234415 309.861476,333.158018 308.038568,331.37905 Z M304.40367,322.080399 L310.276269,328.683315 C310.546242,328.999825 310.937451,329.187482 311.353311,329.199956 C311.769171,329.21243 312.170927,329.048558 312.459391,328.748798 L313.943915,327.417301 C314.253829,327.167794 314.443699,326.798836 314.466577,326.401662 C314.489454,326.004488 314.343203,325.616175 314.063986,325.332744 L308.093147,318.686173 C307.845639,318.376862 307.478432,318.187154 307.082908,318.164259 C306.687385,318.141364 306.300735,318.287434 306.01918,318.56612 L304.589235,319.777564 C304.231742,320.039933 304.005869,320.444631 303.970255,320.886593 C303.934641,321.328555 304.0928,321.76419 304.40367,322.080399 L304.40367,322.080399 Z" id="形状" fill="#3570FF" fill-rule="nonzero"></path>
                        <path d="M294.121163,341.605384 L288.510539,333.681886 C286.982353,331.43362 287.342568,329.48003 289.6021,327.83203 L292.429243,325.834784 C294.721522,324.361406 296.620838,324.601512 298.149024,326.566016 L303.814227,334.554998 C305.269642,336.839643 304.905788,338.829613 302.722665,340.524907 L299.961016,342.478497 C297.676014,343.868202 295.729397,343.577164 294.121163,341.605384 Z M291.534163,331.968402 L296.64267,339.182496 C296.873692,339.52011 297.236469,339.744586 297.641736,339.800692 C298.047003,339.856797 298.457134,339.739322 298.771214,339.477172 L300.39764,338.331211 C300.73109,338.117338 300.959007,337.772916 301.025483,337.382431 C301.091959,336.991946 300.990843,336.591527 300.74694,336.279396 L295.594771,328.988904 C295.378723,328.654882 295.032356,328.426883 294.640092,328.360478 C294.247828,328.294074 293.845699,328.395363 293.53172,328.639659 L291.981703,329.73105 C291.609058,329.951717 291.347561,330.320116 291.262223,330.744656 C291.176886,331.169197 291.275723,331.610004 291.534163,331.957488 L291.534163,331.968402 Z" id="形状" fill="#3570FF" fill-rule="nonzero"></path>
                    </g>
                </g>
            </g>
        </g>
    </g>
</svg>